<svg version="1.1" id="Layer_1" xmlns="http://www.w3.org/2000/svg" xmlns:xlink="http://www.w3.org/1999/xlink" x="0px" y="0px"
	 width="100%" viewBox="0 0 600 600" enable-background="new 0 0 600 600" xml:space="preserve">
<path fill="#E5483A" opacity="1.000000" stroke="none" 
	d="
M1.000000,525.000000 
	C1.000000,450.979095 1.000000,376.958221 1.468657,302.468811 
	C55.902573,301.997925 109.867828,301.995483 163.910065,302.422180 
	C164.309998,305.495148 164.792557,308.130737 164.930847,310.784271 
	C166.098633,333.193604 170.387421,354.930115 177.899994,376.121277 
	C187.170090,402.269897 201.391159,424.892914 223.061874,442.533691 
	C241.448395,457.501038 262.435150,466.626801 285.985657,468.855743 
	C305.602478,470.712402 324.862152,468.753204 343.451141,461.093079 
	C363.998840,452.625854 381.584564,440.177368 396.335907,423.775909 
	C407.992371,410.815552 416.988892,396.035919 423.929291,380.022369 
	C431.064209,363.559906 435.374908,346.313599 438.009857,328.638306 
	C439.327972,319.796173 440.130951,310.877289 441.625122,301.996277 
	C495.055542,301.999634 548.027771,301.999817 601.000000,302.000000 
	C601.000000,376.020905 601.000000,450.041779 600.538757,524.531372 
	C400.385010,525.000000 200.692505,525.000000 1.000000,525.000000 
z"/>
<path fill="#FFFFFF" opacity="1.000000" stroke="none" 
	d="
M601.000000,301.531342 
	C548.027771,301.999817 495.055542,301.999634 441.549683,301.568542 
	C441.678528,295.553558 442.409668,289.976593 442.989899,284.383942 
	C444.443085,270.377106 445.902985,256.370239 447.219147,242.350128 
	C448.568054,227.981018 449.867218,213.605164 450.967590,199.215408 
	C451.879456,187.291122 452.447357,175.340805 453.219574,163.405380 
	C453.418060,160.338058 453.812378,157.283432 454.127228,154.117294 
	C353.097137,154.117294 252.731674,154.117294 151.713043,154.117294 
	C152.566925,166.228210 153.285004,178.111404 154.272720,189.972122 
	C155.387177,203.354691 156.721008,216.719269 158.002579,230.087540 
	C159.157806,242.138016 160.532959,254.169769 161.513443,266.233978 
	C162.480927,278.137878 163.075134,290.072144 163.833099,301.993073 
	C109.867828,301.995483 55.902573,301.997925 1.468657,302.000183 
	C1.000000,226.979111 1.000000,151.958206 1.466985,76.468513 
	C201.622650,75.999809 401.311310,75.999901 601.000000,76.000000 
	C601.000000,151.020889 601.000000,226.041794 601.000000,301.531342 
z"/>
<path fill="#000000" opacity="1.000000" stroke="none" 
	d="
M601.000000,75.533020 
	C401.311310,75.999901 201.622650,75.999809 1.466985,75.999855 
	C1.000000,51.014477 1.000000,26.028954 1.000002,1.048926 
	C201.000000,1.054423 401.000000,1.054423 601.000000,1.054423 
	C601.000000,25.761242 601.000000,50.413635 601.000000,75.533020 
z"/>
<path fill="#000000" opacity="1.000000" stroke="none" 
	d="
M601.000000,526.000000 
	C601.000000,550.985413 601.000000,575.970825 601.000000,600.951660 
	C401.000000,600.947144 200.999985,600.947144 1.000000,600.947144 
	C1.000000,576.241943 1.000000,551.589600 1.461255,526.468628 
	C201.615005,526.000000 401.307495,526.000000 601.000000,526.000000 
z"/>
<path fill="#FFFFFF" opacity="1.000000" stroke="none" 
	d="
M601.000000,525.750000 
	C401.307495,526.000000 201.615005,526.000000 1.461255,526.000000 
	C1.000000,526.000000 1.000000,525.500000 1.000000,525.250000 
	C200.692505,525.000000 400.385010,525.000000 600.538757,525.000000 
	C601.000000,525.000000 601.000000,525.500000 601.000000,525.750000 
z"/>
<path fill="#040201" opacity="1.000000" stroke="none" 
	d="
M163.910065,302.422180 
	C163.075134,290.072144 162.480927,278.137878 161.513443,266.233978 
	C160.532959,254.169769 159.157806,242.138016 158.002579,230.087540 
	C156.721008,216.719269 155.387177,203.354691 154.272720,189.972122 
	C153.285004,178.111404 152.566925,166.228210 151.713043,154.117294 
	C252.731674,154.117294 353.097137,154.117294 454.127228,154.117294 
	C453.812378,157.283432 453.418060,160.338058 453.219574,163.405380 
	C452.447357,175.340805 451.879456,187.291122 450.967590,199.215408 
	C449.867218,213.605164 448.568054,227.981018 447.219147,242.350128 
	C445.902985,256.370239 444.443085,270.377106 442.989899,284.383942 
	C442.409668,289.976593 441.678528,295.553558 441.091522,301.565369 
	C440.130951,310.877289 439.327972,319.796173 438.009857,328.638306 
	C435.374908,346.313599 431.064209,363.559906 423.929291,380.022369 
	C416.988892,396.035919 407.992371,410.815552 396.335907,423.775909 
	C381.584564,440.177368 363.998840,452.625854 343.451141,461.093079 
	C324.862152,468.753204 305.602478,470.712402 285.985657,468.855743 
	C262.435150,466.626801 241.448395,457.501038 223.061874,442.533691 
	C201.391159,424.892914 187.170090,402.269897 177.899994,376.121277 
	C170.387421,354.930115 166.098633,333.193604 164.930847,310.784271 
	C164.792557,308.130737 164.309998,305.495148 163.910065,302.422180 
M420.114685,375.557373 
	C427.579285,357.244141 432.022888,338.186340 433.970551,318.542572 
	C435.787994,300.212494 437.479218,281.869659 439.166412,263.526978 
	C440.488953,249.148514 441.749756,234.764191 442.984589,220.377899 
	C444.262939,205.484146 445.581421,190.592422 446.660889,175.683777 
	C447.027130,170.625809 446.718994,165.519028 446.718994,160.371323 
	C350.599304,160.371323 254.393036,160.371323 157.964691,160.371323 
	C158.076385,162.566010 158.100388,164.393692 158.272766,166.207260 
	C159.498398,179.101654 160.898727,191.981277 161.962402,204.888763 
	C163.162720,219.454330 163.947968,234.053970 165.130859,248.621155 
	C166.985718,271.463165 169.249542,294.273865 170.918793,317.128601 
	C172.591537,340.031006 177.362686,362.114288 186.154053,383.370270 
	C192.850327,399.560730 201.816833,414.179810 213.652344,427.158875 
	C230.611084,445.756042 251.597229,457.474701 275.867188,462.774750 
	C293.488007,466.622772 311.304108,466.189667 328.966278,461.067993 
	C351.544861,454.520660 370.843689,442.917236 387.322083,426.240143 
	C401.609009,411.780914 412.082794,394.936371 420.114685,375.557373 
z"/>
<path fill="#E24234" opacity="1.000000" stroke="none" 
	d="
M419.969421,375.912598 
	C412.082794,394.936371 401.609009,411.780914 387.322083,426.240143 
	C370.843689,442.917236 351.544861,454.520660 328.966278,461.067993 
	C311.304108,466.189667 293.488007,466.622772 275.867188,462.774750 
	C251.597229,457.474701 230.611084,445.756042 213.652344,427.158875 
	C201.816833,414.179810 192.850327,399.560730 186.154053,383.370270 
	C177.362686,362.114288 172.591537,340.031006 170.918793,317.128601 
	C169.249542,294.273865 166.985718,271.463165 165.130859,248.621155 
	C163.947968,234.053970 163.162720,219.454330 161.962402,204.888763 
	C160.898727,191.981277 159.498398,179.101654 158.272766,166.207260 
	C158.100388,164.393692 158.076385,162.566010 157.964691,160.371323 
	C254.393036,160.371323 350.599304,160.371323 446.718994,160.371323 
	C446.718994,165.519028 447.027130,170.625809 446.660889,175.683777 
	C445.581421,190.592422 444.262939,205.484146 442.984589,220.377899 
	C441.749756,234.764191 440.488953,249.148514 439.166412,263.526978 
	C437.479218,281.869659 435.787994,300.212494 433.970551,318.542572 
	C432.022888,338.186340 427.579285,357.244141 419.969421,375.912598 
M291.682465,233.792114 
	C287.738342,226.754639 283.816101,219.704788 279.845306,212.682388 
	C272.779633,200.186737 265.687805,187.705856 258.599854,175.222809 
	C256.387146,171.325851 253.119278,169.713394 248.655670,170.617722 
	C239.376999,172.497589 236.052505,178.982468 240.239655,187.608673 
	C242.308365,191.870514 244.893494,195.881683 247.395966,200.271149 
	C245.382370,201.405746 243.588638,202.416473 241.611130,203.530746 
	C238.395264,198.096451 235.388824,193.016083 232.034592,187.347992 
	C225.785980,190.696762 219.762497,193.924896 213.520035,197.270386 
	C216.047943,202.089249 218.257309,206.300873 220.543823,210.659576 
	C219.626129,211.125031 218.525650,211.683228 217.218781,212.346085 
	C214.515121,208.036560 211.937714,203.928299 209.325729,199.764923 
	C202.015701,203.706314 195.250092,207.354156 188.014877,211.255203 
	C191.873657,218.362640 195.539032,225.113846 199.268982,231.983963 
	C202.157425,230.363785 204.829895,228.864761 207.555328,227.336029 
	C208.790726,229.589600 209.879333,231.575424 210.959488,233.545807 
	C208.544342,235.208084 206.246216,236.789841 203.652985,238.574692 
	C206.235977,243.244690 208.662567,247.631912 211.041412,251.932816 
	C220.387863,247.195312 229.167419,242.745132 237.899109,238.319229 
	C235.875046,234.747711 233.942230,231.337173 231.848572,227.642838 
	C240.426086,223.558319 238.072983,233.931473 242.405655,234.880997 
	C244.768127,233.719513 247.098480,232.573807 249.534073,231.376358 
	C250.376251,232.864578 251.103882,234.150375 251.797592,235.376190 
	C249.467026,237.054657 247.248840,238.652191 245.263794,240.081833 
	C247.085480,243.169159 248.738190,245.970123 250.597580,249.121368 
	C248.698090,250.092010 247.345856,250.782990 245.861115,251.541687 
	C243.913361,248.375092 242.231003,245.639984 240.495392,242.818314 
	C231.331406,248.013840 222.632339,252.945770 213.793259,257.957092 
	C217.456375,263.917633 220.714417,269.219055 223.953506,274.489624 
	C226.582916,273.133728 228.830460,271.974701 231.186111,270.759979 
	C232.237152,273.081238 233.031586,274.835754 233.959518,276.885101 
	C232.313614,277.714569 230.660645,278.219116 229.482513,279.260773 
	C228.739716,279.917511 228.089981,281.680878 228.456970,282.427734 
	C230.715027,287.022888 233.138504,291.554291 235.835953,295.902832 
	C236.458130,296.905853 238.770126,297.959259 239.611786,297.553284 
	C246.216690,294.367584 252.653000,290.832367 259.314362,287.313385 
	C256.243896,281.883484 253.508347,277.045898 250.817459,272.287292 
	C253.585770,269.446198 255.376892,269.367157 257.016602,272.907715 
	C258.801910,276.762573 261.034912,280.410095 263.163544,284.314514 
	C269.489288,280.709229 275.304993,277.394684 281.351959,273.948303 
	C278.918335,269.277283 276.762390,264.833038 274.320801,260.551666 
	C272.428986,257.234314 272.618622,255.175217 276.499359,254.601990 
	C278.207001,257.194763 279.860565,259.470215 281.266510,261.889557 
	C284.118408,266.797119 287.062012,271.065826 282.838135,277.480804 
	C276.420654,287.227356 271.523834,297.968475 265.784241,308.176453 
	C265.069336,309.447937 263.215088,310.154053 261.786469,310.934998 
	C257.412170,313.326141 252.256836,314.872742 248.821640,318.207062 
	C246.217560,320.734650 246.172989,325.701569 242.939438,328.491791 
	C241.896576,329.391663 240.950714,331.073120 239.870575,331.151062 
	C233.257492,331.628204 226.619324,331.781128 219.987030,331.932098 
	C219.343018,331.946777 218.517456,331.351715 218.053680,330.804504 
	C211.946335,323.598877 207.625336,322.225586 199.267792,325.044250 
	C191.976257,327.503418 191.381470,334.152435 190.033737,340.217255 
	C188.777740,345.869263 191.667191,349.563080 196.491089,351.766937 
	C203.726532,355.072540 207.037521,360.912933 208.021545,368.433502 
	C209.008163,375.974060 209.950912,383.520294 210.904358,390.997101 
	C203.022858,397.407227 202.295837,402.522919 208.041458,410.524353 
	C211.409317,415.214478 219.506409,417.575012 225.678970,415.666138 
	C231.132584,413.979614 232.495850,411.673767 233.164627,404.311310 
	C233.292450,402.904053 234.544693,400.955811 235.790070,400.396057 
	C244.836639,396.329865 254.398972,394.563934 264.316589,395.036652 
	C265.623199,395.098938 267.265106,395.605408 268.114014,396.506744 
	C271.969299,400.599854 276.385193,400.704010 281.328278,399.104614 
	C286.505280,397.429474 289.207581,393.589478 289.973206,388.623505 
	C291.461334,378.971100 287.423798,374.298920 276.664154,372.534302 
	C272.376862,361.003754 272.326355,349.653137 279.907196,337.840057 
	C282.194763,337.236053 282.744354,334.356079 283.188080,330.431915 
	C283.910736,324.040863 283.375031,317.267914 287.741119,311.511841 
	C290.699768,307.611328 292.664886,302.966187 295.182556,298.718201 
	C296.331635,296.779449 297.741821,294.995483 299.188660,292.918701 
	C302.406067,298.498047 305.200531,303.555450 308.201660,308.487061 
	C311.049377,313.166565 313.989410,317.599579 313.182678,323.640869 
	C312.796783,326.530487 313.855286,329.657623 314.514984,332.620331 
	C314.780731,333.813782 315.707825,334.868713 316.373016,335.962891 
	C318.558044,339.556885 321.521759,342.889313 322.803040,346.778015 
	C325.721771,355.636078 323.505096,364.310638 321.060242,371.350586 
	C316.796295,373.112183 313.037598,373.648651 310.833130,375.787262 
	C306.235626,380.247437 306.651550,390.227264 310.845551,395.148743 
	C314.872955,399.874725 324.667328,401.131256 328.305389,396.762177 
	C330.533691,394.086090 332.840820,393.578979 335.600769,394.082886 
	C343.685730,395.559113 351.729889,397.263794 359.774963,398.950928 
	C362.614624,399.546478 364.167114,400.873260 364.170013,404.351166 
	C364.174072,409.251251 366.126831,413.866913 371.575562,414.692993 
	C375.537659,415.293671 379.966339,415.215973 383.760773,414.051697 
	C393.248779,411.140350 395.710114,398.648193 388.679504,391.819122 
	C387.603485,390.773926 386.982635,388.601349 387.143860,387.053558 
	C387.897888,379.814453 388.798767,372.576752 390.041626,365.406891 
	C391.010681,359.816650 393.849945,355.086121 398.925415,352.253479 
	C409.000641,346.630524 410.953186,336.937805 403.570953,327.669952 
	C399.321655,322.335266 385.717194,320.525146 382.581390,326.065979 
	C379.326019,331.817963 374.496735,331.916779 369.082397,331.487061 
	C365.764374,331.223694 362.380768,331.429749 359.128601,330.851379 
	C357.606903,330.580780 355.906921,329.228241 355.022339,327.882996 
	C353.031677,324.855713 352.212891,320.665741 349.618591,318.516449 
	C345.390198,315.013397 340.127136,312.757660 335.293915,309.987396 
	C334.228088,309.376526 332.629852,309.093933 332.129089,308.188690 
	C325.660645,296.495728 319.293304,284.745361 313.075562,272.917389 
	C312.449738,271.726868 312.426636,269.652191 313.047119,268.474060 
	C315.470154,263.873260 318.264526,259.468018 321.010895,254.838226 
	C322.557556,256.020447 323.801636,256.971405 324.871124,257.788910 
	C321.869965,263.552429 319.006287,269.051971 316.120178,274.594543 
	C321.211639,277.580658 326.052948,280.389587 330.861816,283.252960 
	C333.344452,284.731232 334.979492,284.505280 336.254791,281.558167 
	C337.497559,278.686218 339.139954,275.940643 340.952545,273.384644 
	C341.684265,272.352753 343.333771,271.971649 344.565613,271.294403 
	C344.762238,272.670807 345.551239,274.331360 345.051239,275.373566 
	C343.059906,279.524658 340.666901,283.483032 338.115662,288.063904 
	C345.426636,291.927917 352.518311,295.676056 359.970917,299.614899 
	C363.330292,293.239105 366.554993,287.118927 369.783173,280.992157 
	C367.402405,279.686798 365.405701,278.592010 363.297394,277.436035 
	C364.331360,275.392395 365.282471,273.512543 366.354706,271.393219 
	C368.914459,272.828674 371.103943,274.056458 373.508484,275.404877 
	C376.942078,269.539734 380.074341,264.189331 383.394867,258.517303 
	C374.262787,253.358063 365.577911,248.451447 356.716797,243.445282 
	C354.808441,246.678238 353.232605,249.347870 351.476166,252.323410 
	C349.801270,251.381516 348.411255,250.599808 346.809875,249.699265 
	C348.792816,246.477722 350.562866,243.602066 352.306000,240.770096 
	C349.788727,238.993820 347.715759,237.531052 345.339478,235.854263 
	C346.585327,234.229538 347.425385,233.133987 348.224640,232.091690 
	C350.896149,233.489731 353.188171,234.689194 355.411041,235.852463 
	C357.473907,232.534271 359.396057,229.442398 361.665222,225.792374 
	C368.546295,231.374741 358.999695,234.752365 360.346497,239.421326 
	C368.794403,243.716583 377.406830,248.095490 386.323395,252.629028 
	C388.814209,248.018600 390.998810,243.974960 393.354889,239.613937 
	C391.125397,237.782394 388.991302,236.029205 386.589539,234.056122 
	C387.592407,232.104416 388.611938,230.120300 389.633698,228.131805 
	C392.595215,229.693939 395.275909,231.107956 398.121399,232.608902 
	C401.980133,225.414566 405.543243,218.771332 409.251770,211.856995 
	C401.929596,207.974731 395.015198,204.308701 387.959778,200.567886 
	C385.190979,204.999786 382.683411,209.013519 379.964813,213.365051 
	C378.821655,212.492371 377.875793,211.770325 376.999969,211.101730 
	C379.259888,206.661346 381.343719,202.566986 383.682983,197.970734 
	C377.483429,194.596375 371.477844,191.327591 365.306274,187.968445 
	C361.926910,193.781433 358.788513,199.179947 355.571228,204.714142 
	C353.763184,203.346298 351.973816,201.992599 350.628082,200.974518 
	C353.447052,194.944168 356.522034,189.425522 358.616669,183.556976 
	C360.355255,178.686005 357.206909,174.106247 351.763123,171.956390 
	C346.403046,169.839584 341.690216,170.945480 339.198944,175.363907 
	C328.990662,193.468918 318.928894,211.656448 308.773499,229.791382 
	C305.691742,235.294617 302.482269,240.726334 298.772797,247.159363 
	C296.164673,242.243317 294.096893,238.345718 291.682465,233.792114 
z"/>
<path fill="#0A0808" opacity="1.000000" stroke="none" 
	d="
M291.855774,234.120117 
	C294.096893,238.345718 296.164673,242.243317 298.772797,247.159363 
	C302.482269,240.726334 305.691742,235.294617 308.773499,229.791382 
	C318.928894,211.656448 328.990662,193.468918 339.198944,175.363907 
	C341.690216,170.945480 346.403046,169.839584 351.763123,171.956390 
	C357.206909,174.106247 360.355255,178.686005 358.616669,183.556976 
	C356.522034,189.425522 353.447052,194.944168 350.628082,200.974518 
	C351.973816,201.992599 353.763184,203.346298 355.571228,204.714142 
	C358.788513,199.179947 361.926910,193.781433 365.306274,187.968445 
	C371.477844,191.327591 377.483429,194.596375 383.682983,197.970734 
	C381.343719,202.566986 379.259888,206.661346 376.999969,211.101730 
	C377.875793,211.770325 378.821655,212.492371 379.964813,213.365051 
	C382.683411,209.013519 385.190979,204.999786 387.959778,200.567886 
	C395.015198,204.308701 401.929596,207.974731 409.251770,211.856995 
	C405.543243,218.771332 401.980133,225.414566 398.121399,232.608902 
	C395.275909,231.107956 392.595215,229.693939 389.633698,228.131805 
	C388.611938,230.120300 387.592407,232.104416 386.589539,234.056122 
	C388.991302,236.029205 391.125397,237.782394 393.354889,239.613937 
	C390.998810,243.974960 388.814209,248.018600 386.323395,252.629028 
	C377.406830,248.095490 368.794403,243.716583 360.346497,239.421326 
	C358.999695,234.752365 368.546295,231.374741 361.665222,225.792374 
	C359.396057,229.442398 357.473907,232.534271 355.411041,235.852463 
	C353.188171,234.689194 350.896149,233.489731 348.224640,232.091690 
	C347.425385,233.133987 346.585327,234.229538 345.339478,235.854263 
	C347.715759,237.531052 349.788727,238.993820 352.306000,240.770096 
	C350.562866,243.602066 348.792816,246.477722 346.809875,249.699265 
	C348.411255,250.599808 349.801270,251.381516 351.476166,252.323410 
	C353.232605,249.347870 354.808441,246.678238 356.716797,243.445282 
	C365.577911,248.451447 374.262787,253.358063 383.394867,258.517303 
	C380.074341,264.189331 376.942078,269.539734 373.508484,275.404877 
	C371.103943,274.056458 368.914459,272.828674 366.354706,271.393219 
	C365.282471,273.512543 364.331360,275.392395 363.297394,277.436035 
	C365.405701,278.592010 367.402405,279.686798 369.783173,280.992157 
	C366.554993,287.118927 363.330292,293.239105 359.970917,299.614899 
	C352.518311,295.676056 345.426636,291.927917 338.115662,288.063904 
	C340.666901,283.483032 343.059906,279.524658 345.051239,275.373566 
	C345.551239,274.331360 344.762238,272.670807 344.565613,271.294373 
	C343.333771,271.971649 341.684265,272.352753 340.952545,273.384644 
	C339.139954,275.940643 337.497559,278.686218 336.254791,281.558167 
	C334.979492,284.505280 333.344452,284.731232 330.861816,283.252960 
	C326.052948,280.389587 321.211639,277.580658 316.120178,274.594543 
	C319.006287,269.051971 321.869965,263.552429 324.871124,257.788910 
	C323.801636,256.971405 322.557556,256.020447 321.010895,254.838226 
	C318.264526,259.468018 315.470154,263.873260 313.047119,268.474060 
	C312.426636,269.652191 312.449738,271.726868 313.075562,272.917389 
	C319.293304,284.745361 325.660645,296.495728 332.129089,308.188690 
	C332.629852,309.093933 334.228088,309.376526 335.293915,309.987396 
	C340.127136,312.757660 345.390198,315.013397 349.618591,318.516449 
	C352.212891,320.665741 353.031677,324.855713 355.022339,327.882996 
	C355.906921,329.228241 357.606903,330.580780 359.128601,330.851379 
	C362.380768,331.429749 365.764374,331.223694 369.082397,331.487061 
	C374.496735,331.916779 379.326019,331.817963 382.581390,326.065979 
	C385.717194,320.525146 399.321655,322.335266 403.570953,327.669952 
	C410.953186,336.937805 409.000641,346.630524 398.925415,352.253479 
	C393.849945,355.086121 391.010681,359.816650 390.041626,365.406891 
	C388.798767,372.576752 387.897888,379.814453 387.143860,387.053558 
	C386.982635,388.601349 387.603485,390.773926 388.679504,391.819122 
	C395.710114,398.648193 393.248779,411.140350 383.760773,414.051697 
	C379.966339,415.215973 375.537659,415.293671 371.575562,414.692993 
	C366.126831,413.866913 364.174072,409.251251 364.170013,404.351166 
	C364.167114,400.873260 362.614624,399.546478 359.774963,398.950928 
	C351.729889,397.263794 343.685730,395.559113 335.600769,394.082886 
	C332.840820,393.578979 330.533691,394.086090 328.305389,396.762177 
	C324.667328,401.131256 314.872955,399.874725 310.845551,395.148743 
	C306.651550,390.227264 306.235626,380.247437 310.833130,375.787262 
	C313.037598,373.648651 316.796295,373.112183 321.060242,371.350586 
	C323.505096,364.310638 325.721771,355.636078 322.803040,346.778015 
	C321.521759,342.889313 318.558044,339.556885 316.373016,335.962891 
	C315.707825,334.868713 314.780731,333.813782 314.514984,332.620331 
	C313.855286,329.657623 312.796783,326.530487 313.182678,323.640869 
	C313.989410,317.599579 311.049377,313.166565 308.201660,308.487061 
	C305.200531,303.555450 302.406067,298.498047 299.188660,292.918701 
	C297.741821,294.995483 296.331635,296.779449 295.182556,298.718201 
	C292.664886,302.966187 290.699768,307.611328 287.741119,311.511841 
	C283.375031,317.267914 283.910736,324.040863 283.188080,330.431915 
	C282.744354,334.356079 282.194763,337.236053 279.907196,337.840057 
	C272.326355,349.653137 272.376862,361.003754 276.664154,372.534302 
	C287.423798,374.298920 291.461334,378.971100 289.973206,388.623505 
	C289.207581,393.589478 286.505280,397.429474 281.328278,399.104614 
	C276.385193,400.704010 271.969299,400.599854 268.114014,396.506744 
	C267.265106,395.605408 265.623199,395.098938 264.316589,395.036652 
	C254.398972,394.563934 244.836639,396.329865 235.790070,400.396057 
	C234.544693,400.955811 233.292450,402.904053 233.164627,404.311310 
	C232.495850,411.673767 231.132584,413.979614 225.678970,415.666138 
	C219.506409,417.575012 211.409317,415.214478 208.041458,410.524353 
	C202.295837,402.522919 203.022858,397.407227 210.904358,390.997101 
	C209.950912,383.520294 209.008163,375.974060 208.021545,368.433502 
	C207.037521,360.912933 203.726532,355.072540 196.491089,351.766937 
	C191.667191,349.563080 188.777740,345.869263 190.033737,340.217255 
	C191.381470,334.152435 191.976257,327.503418 199.267792,325.044250 
	C207.625336,322.225586 211.946335,323.598877 218.053680,330.804504 
	C218.517456,331.351715 219.343018,331.946777 219.987030,331.932098 
	C226.619324,331.781128 233.257492,331.628204 239.870575,331.151062 
	C240.950714,331.073120 241.896576,329.391663 242.939438,328.491791 
	C246.172989,325.701569 246.217560,320.734650 248.821640,318.207062 
	C252.256836,314.872742 257.412170,313.326141 261.786469,310.934998 
	C263.215088,310.154053 265.069336,309.447937 265.784241,308.176453 
	C271.523834,297.968475 276.420654,287.227356 282.838135,277.480804 
	C287.062012,271.065826 284.118408,266.797119 281.266510,261.889557 
	C279.860565,259.470215 278.207001,257.194763 276.499359,254.601990 
	C272.618622,255.175217 272.428986,257.234314 274.320801,260.551666 
	C276.762390,264.833038 278.918335,269.277283 281.351959,273.948303 
	C275.304993,277.394684 269.489288,280.709229 263.163544,284.314514 
	C261.034912,280.410095 258.801910,276.762573 257.016602,272.907715 
	C255.376892,269.367157 253.585770,269.446198 250.817459,272.287292 
	C253.508347,277.045898 256.243896,281.883484 259.314362,287.313385 
	C252.653000,290.832367 246.216690,294.367584 239.611786,297.553284 
	C238.770126,297.959259 236.458130,296.905853 235.835953,295.902832 
	C233.138504,291.554291 230.715027,287.022888 228.456970,282.427734 
	C228.089981,281.680878 228.739716,279.917511 229.482513,279.260773 
	C230.660645,278.219116 232.313614,277.714569 233.959518,276.885101 
	C233.031586,274.835754 232.237152,273.081238 231.186111,270.759979 
	C228.830460,271.974701 226.582916,273.133728 223.953506,274.489624 
	C220.714417,269.219055 217.456375,263.917633 213.793259,257.957092 
	C222.632339,252.945770 231.331406,248.013840 240.495392,242.818314 
	C242.231003,245.639984 243.913361,248.375092 245.861115,251.541687 
	C247.345856,250.782990 248.698090,250.092010 250.597580,249.121368 
	C248.738190,245.970123 247.085480,243.169159 245.263794,240.081833 
	C247.248840,238.652191 249.467026,237.054657 251.797592,235.376190 
	C251.103882,234.150375 250.376251,232.864578 249.534073,231.376358 
	C247.098480,232.573807 244.768127,233.719513 242.405655,234.880997 
	C238.072983,233.931473 240.426086,223.558319 231.848572,227.642838 
	C233.942230,231.337173 235.875046,234.747711 237.899109,238.319229 
	C229.167419,242.745132 220.387863,247.195312 211.041412,251.932816 
	C208.662567,247.631912 206.235977,243.244690 203.652985,238.574692 
	C206.246216,236.789841 208.544342,235.208084 210.959488,233.545807 
	C209.879333,231.575424 208.790726,229.589600 207.555328,227.336029 
	C204.829895,228.864761 202.157425,230.363785 199.268982,231.983963 
	C195.539032,225.113846 191.873657,218.362640 188.014877,211.255203 
	C195.250092,207.354156 202.015701,203.706314 209.325729,199.764923 
	C211.937714,203.928299 214.515121,208.036560 217.218781,212.346085 
	C218.525650,211.683228 219.626129,211.125031 220.543823,210.659576 
	C218.257309,206.300873 216.047943,202.089249 213.520035,197.270386 
	C219.762497,193.924896 225.785980,190.696762 232.034592,187.347992 
	C235.388824,193.016083 238.395264,198.096451 241.611130,203.530746 
	C243.588638,202.416473 245.382370,201.405746 247.395966,200.271149 
	C244.893494,195.881683 242.308365,191.870514 240.239655,187.608673 
	C236.052505,178.982468 239.376999,172.497589 248.655670,170.617722 
	C253.119278,169.713394 256.387146,171.325851 258.599854,175.222809 
	C265.687805,187.705856 272.779633,200.186737 279.845306,212.682388 
	C283.816101,219.704788 287.738342,226.754639 291.855774,234.120117 
M316.717255,316.299164 
	C317.121063,316.817871 317.524872,317.336578 317.928650,317.855316 
	C318.123444,317.712891 318.318207,317.570465 318.512970,317.428040 
	C318.101990,316.528259 317.691040,315.628479 317.203033,314.183197 
	C316.784729,313.620270 316.366455,313.057343 315.554443,311.952698 
	C314.918304,310.803864 314.282166,309.655029 313.310394,307.934326 
	C312.741669,306.759064 312.172943,305.583832 311.245209,303.848846 
	C310.797241,303.719666 310.349243,303.590454 309.901276,303.461243 
	C310.215118,304.024078 310.528961,304.586914 310.902954,305.821960 
	C311.515015,306.956909 312.127075,308.091858 312.842651,309.887207 
	C313.516907,310.967773 314.191132,312.048309 314.961792,313.745972 
	C315.432251,314.382355 315.902710,315.018768 316.717255,316.299164 
M272.771484,236.272186 
	C273.028015,236.776413 273.284515,237.280640 273.541046,237.784851 
	C273.771484,237.677963 274.001923,237.571075 274.232391,237.464188 
	C273.889648,236.577209 273.546936,235.690231 273.141815,234.242264 
	C272.732086,233.659241 272.322388,233.076218 271.470367,231.906326 
	C268.324249,226.245972 265.178162,220.585617 261.913055,214.214767 
	C258.808716,208.599228 255.704391,202.983673 252.235397,196.822464 
	C251.629105,196.594116 251.022812,196.365753 250.416519,196.137390 
	C250.854355,196.846649 251.292206,197.555893 251.859543,198.969528 
	C254.977768,204.638596 258.096008,210.307663 261.314331,216.652740 
	C264.494324,222.147858 267.674316,227.642990 270.944122,233.769089 
	C271.422760,234.418991 271.901398,235.068893 272.771484,236.272186 
M211.725388,361.909302 
	C211.891022,362.416901 212.056671,362.924469 212.622879,364.120575 
	C213.967117,371.102753 215.311371,378.084930 216.731781,385.983978 
	C216.905579,389.109772 217.079376,392.235535 217.170105,393.867065 
	C213.944794,396.791260 210.531265,398.618988 209.374268,401.389160 
	C208.626862,403.178711 211.184631,406.348694 212.282150,408.807465 
	C212.282150,408.807465 212.120529,408.754547 212.672043,409.380280 
	C215.330429,414.235962 219.915649,413.702148 223.940735,412.598328 
	C228.523468,411.341553 229.176727,406.810974 230.031326,402.731110 
	C230.444626,400.758057 231.260559,398.869293 231.813232,396.995819 
	C231.813232,396.995819 231.753662,397.072357 232.538330,397.385101 
	C242.982162,393.422455 253.406494,389.238586 264.892303,390.146484 
	C266.628113,390.283691 269.006714,391.437592 269.784760,392.842804 
	C272.201904,397.208405 275.320496,397.880005 279.663818,396.216431 
	C285.790192,393.869843 288.762634,388.083405 286.784576,381.923309 
	C285.299164,377.297546 280.257538,375.335815 273.951172,377.578247 
	C271.093384,378.594452 269.885742,377.860321 269.401947,375.340454 
	C267.859436,367.305878 266.433197,359.248688 265.007446,351.192169 
	C264.414917,347.843781 265.088531,342.799133 263.160614,341.474854 
	C259.482849,338.948486 255.114624,336.499939 249.616776,337.844940 
	C241.650665,339.793732 233.462845,340.956421 225.310150,341.981659 
	C219.545166,342.706635 216.195892,339.997528 214.556763,334.381592 
	C212.692093,327.992981 204.956589,325.722290 198.170685,329.901672 
	C197.690292,330.516479 197.209900,331.131287 196.148727,332.162079 
	C195.580093,333.355194 195.044220,334.565216 194.437195,335.738495 
	C191.763062,340.906982 192.986084,346.247375 198.467545,347.834656 
	C204.299545,349.523438 207.281357,353.354950 209.973618,358.719513 
	C210.540558,359.604492 211.107498,360.489502 211.725388,361.909302 
M324.047821,239.106750 
	C324.467896,238.109589 324.888000,237.112427 325.876068,235.748016 
	C328.097168,231.461853 330.318298,227.175690 333.126373,222.449631 
	C336.500885,216.047363 339.875427,209.645096 343.824493,202.871216 
	C344.927155,200.621048 346.029846,198.370895 347.760559,195.819000 
	C348.146027,194.659195 348.531464,193.499405 348.916901,192.339600 
	C348.664825,192.243301 348.412750,192.146988 348.160675,192.050690 
	C347.566193,193.123947 346.971710,194.197205 346.022797,195.859238 
	C344.836060,197.943878 343.649353,200.028503 341.878662,202.555298 
	C338.528442,208.983673 335.178223,215.412048 331.216888,222.172562 
	C328.762634,226.764053 326.308380,231.355530 323.278961,236.193069 
	C323.015076,236.977814 322.751221,237.762558 322.130829,238.934448 
	C321.894073,239.399490 321.657288,239.864517 321.047455,240.916794 
	C320.309265,242.558563 319.571106,244.200317 318.216980,246.176270 
	C317.078003,248.386505 315.939026,250.596741 314.225281,253.093704 
	C313.984863,253.691376 313.744446,254.289062 313.504059,254.886734 
	C314.198090,254.461624 314.892151,254.036499 316.154022,253.196838 
	C317.363617,250.945953 318.573181,248.695053 320.024658,245.842758 
	C320.760651,244.302444 321.496643,242.762131 322.750702,240.972794 
	C322.981750,240.449478 323.212799,239.926163 324.047821,239.106750 
M353.049683,183.996307 
	C352.471588,185.255981 351.893463,186.515671 351.315369,187.775345 
	C351.696167,187.942474 352.076996,188.109604 352.457825,188.276733 
	C353.009644,186.885101 353.561493,185.493469 354.795959,183.739197 
	C354.750702,181.996933 354.705414,180.254684 354.261414,177.886688 
	C348.756226,173.144882 344.951843,173.301834 341.592346,179.170151 
	C331.910980,196.081482 322.496704,213.145935 313.011810,230.169388 
	C306.082153,242.606735 299.245209,255.095810 292.297546,267.523041 
	C284.037933,282.296967 275.704071,297.029358 267.142029,312.242401 
	C269.990967,314.077515 272.547882,315.724518 275.556244,317.662323 
	C282.878601,304.082550 289.917816,290.979614 297.002106,277.901062 
	C307.419128,258.669861 317.909271,239.478149 328.288818,220.226791 
	C334.780914,208.185745 340.990326,195.989532 347.667206,184.053497 
	C348.843475,181.950760 351.701385,180.788696 353.879364,179.917587 
	C353.714783,181.074936 353.550201,182.232300 353.049683,183.996307 
M287.677094,264.128479 
	C287.943542,264.699677 288.209991,265.270905 288.476410,265.842102 
	C288.850952,265.529694 289.591400,265.032684 289.541748,264.934265 
	C289.168304,264.193848 288.639191,263.531952 288.099213,262.168701 
	C287.307800,260.619965 286.516388,259.071228 285.351074,256.926605 
	C284.439697,255.081116 283.528320,253.235611 282.248566,250.824234 
	C281.400787,250.171387 280.552979,249.518539 279.705200,248.865692 
	C279.504181,249.138046 279.303192,249.410416 279.102173,249.682770 
	C280.011353,250.510574 280.920502,251.338379 281.903473,252.863602 
	C282.885498,254.622238 283.867493,256.380859 284.918182,258.825195 
	C285.742676,260.402100 286.567200,261.979004 287.677094,264.128479 
M386.716644,360.886139 
	C386.830109,359.917877 386.943604,358.949646 387.537872,357.661896 
	C387.688751,357.118866 387.839630,356.575836 388.685425,355.847839 
	C390.691132,351.707062 393.110382,348.458252 398.345490,347.691223 
	C400.422913,347.386871 403.062439,344.812195 403.811005,342.693420 
	C406.026367,336.423126 401.772064,328.776459 395.846710,327.169525 
	C389.383575,325.416748 383.931519,329.257507 382.255951,337.053894 
	C376.332062,337.053894 370.319550,337.053894 364.307037,337.053894 
	C364.303406,337.488831 364.299774,337.923767 364.296173,338.358704 
	C369.670654,338.358704 375.045105,338.358704 380.419586,338.358704 
	C380.425842,338.841644 380.432129,339.324554 380.438385,339.807495 
	C378.729706,340.207031 376.997833,341.023804 375.316559,340.930328 
	C369.546936,340.609619 363.769989,340.159943 358.042328,339.406158 
	C350.024384,338.350952 341.901337,333.761200 334.641144,340.797760 
	C330.928375,352.836029 333.169617,366.317291 326.489685,378.056976 
	C325.751740,377.704468 325.192108,377.386749 324.597595,377.160797 
	C317.638947,374.516357 312.470062,376.349976 310.535370,382.135010 
	C309.067932,386.522949 311.560944,392.621613 315.746887,394.883911 
	C320.565796,397.488312 324.115479,396.508789 327.859375,391.785614 
	C328.588501,390.865814 329.927979,389.842804 330.974823,389.854553 
	C339.518829,389.950409 348.148987,389.279541 356.180115,393.527039 
	C358.875000,394.952271 362.166199,395.249939 365.136322,395.986206 
	C365.136322,395.986206 365.056366,395.943176 364.857086,396.751282 
	C365.904724,398.098633 367.331635,399.303497 367.904694,400.829102 
	C368.633514,402.769287 368.530853,405.003876 369.035919,407.049988 
	C370.003693,410.970642 373.223663,412.848480 376.658203,412.646851 
	C379.194641,412.497894 381.608917,410.269348 384.006683,408.985291 
	C384.006683,408.985291 383.986420,409.055603 384.732056,409.083282 
	C391.270325,403.575134 389.729370,398.599213 380.012115,394.273102 
	C380.501373,389.914307 380.996796,385.500214 381.903442,380.414368 
	C383.290680,373.939240 384.677917,367.464111 385.991608,360.998077 
	C385.991608,360.998077 385.998352,361.071869 386.716644,360.886139 
M213.710846,224.903168 
	C215.133713,228.024780 216.556595,231.146393 217.981781,234.273071 
	C216.250259,235.352280 214.611618,236.373611 212.770187,237.521332 
	C214.121429,239.932297 215.364166,242.149658 216.845856,244.793365 
	C222.370972,242.075958 227.419968,239.592712 232.681274,237.005051 
	C230.473816,233.068161 228.740097,229.976151 227.010468,226.891464 
	C231.858719,224.133209 236.470551,221.509445 240.982803,218.942352 
	C242.805359,222.291122 244.358322,225.144516 245.908478,227.992798 
	C248.471481,226.730911 250.611588,225.677246 253.155685,224.424667 
	C255.367355,228.276962 257.444366,231.894714 259.645477,235.728653 
	C257.350464,237.332550 255.244400,238.804398 253.146057,240.270844 
	C254.636002,243.175034 256.079468,245.988647 257.536285,248.828247 
	C252.726715,251.551773 248.604538,253.886032 244.541748,256.186676 
	C243.024582,253.616226 241.552048,251.121445 239.877808,248.284897 
	C234.265350,251.291107 229.039276,254.090363 223.769547,256.913025 
	C226.192673,260.772186 228.179504,263.936523 230.133591,267.048676 
	C232.000092,265.908356 233.509064,264.986481 235.414703,263.822235 
	C237.836060,268.094391 240.128189,272.138550 242.365173,276.085419 
	C240.479080,277.529144 239.190826,278.515259 237.665283,279.682983 
	C240.075912,283.945709 242.375992,288.012939 244.836914,292.364594 
	C248.127899,290.260712 251.131973,288.340240 254.388321,286.258484 
	C251.562607,280.897858 248.827179,275.708557 246.124039,270.580475 
	C250.736115,267.671509 255.201065,264.855347 259.688507,262.024994 
	C263.084625,267.336212 266.230164,272.255524 269.467499,277.318390 
	C272.234680,275.770782 274.635559,274.428040 277.359009,272.904907 
	C275.186157,269.532684 273.000214,266.650208 271.354340,263.486725 
	C267.054657,255.222366 265.542877,256.159241 274.262451,251.358398 
	C274.529846,251.211182 274.679962,250.850906 275.004547,250.437363 
	C266.596283,235.257935 258.154327,220.017685 249.671295,204.703262 
	C246.531143,206.178772 243.911362,207.409744 240.913437,208.818420 
	C237.700577,203.353287 234.568298,198.025253 231.181549,192.264343 
	C228.708817,193.849533 226.184677,195.467697 223.498825,197.189529 
	C226.044571,201.703064 228.284882,205.675079 230.501419,209.604950 
	C225.620102,212.520493 220.642838,215.493332 215.631287,218.486664 
	C212.826004,214.007507 210.317123,210.001648 207.713242,205.844101 
	C204.259094,207.479584 201.075378,208.987030 197.313019,210.768463 
	C200.234116,215.434036 202.957138,219.783249 205.714996,224.188126 
	C207.887222,223.062500 209.727737,222.108749 211.717545,221.077652 
	C212.274292,222.216873 212.780319,223.252335 213.710846,224.903168 
M369.271362,264.792694 
	C370.527985,262.506927 371.784576,260.221130 373.289642,257.483368 
	C367.951416,254.579941 362.736938,251.743820 357.412354,248.847809 
	C355.706665,251.819977 354.243195,254.370026 352.796631,256.890656 
	C348.418427,254.393036 344.205994,251.989990 339.873993,249.518707 
	C341.417633,246.491119 342.874725,243.633286 344.234283,240.966721 
	C341.754211,239.209778 339.711456,237.762619 337.617798,236.279404 
	C340.109222,232.125778 342.256531,228.545853 344.323792,225.099411 
	C346.901703,226.306931 349.087952,227.330994 351.534363,228.476913 
	C353.318604,225.206421 354.898865,222.309814 356.424042,219.514145 
	C361.170105,222.281128 365.664398,224.901352 370.283600,227.594406 
	C368.320435,231.103607 366.534180,234.296555 364.523529,237.890610 
	C370.192474,240.505936 375.308167,242.866028 380.592285,245.303818 
	C381.978027,242.715393 383.117157,240.587585 384.382355,238.224319 
	C382.545013,236.955566 380.993835,235.884430 379.207733,234.651062 
	C381.492310,230.239807 383.674225,226.026825 385.849670,221.826370 
	C388.312134,223.146362 389.898499,223.996735 391.613068,224.915833 
	C394.382568,220.519348 397.177185,216.082962 400.088043,211.462097 
	C396.476501,209.793854 393.110596,208.239059 389.625153,206.629074 
	C386.898682,210.938416 384.309296,215.031052 381.638885,219.251740 
	C376.435486,216.083572 371.633514,213.159836 366.998016,210.337463 
	C369.328217,205.934128 371.451263,201.922180 373.687866,197.695663 
	C370.940674,195.996399 368.547607,194.516174 366.163269,193.041367 
	C362.790802,198.794586 359.687714,204.088318 356.596161,209.362320 
	C353.253754,207.942978 350.449768,206.752274 347.564331,205.526978 
	C338.929077,221.264786 330.596710,236.450562 322.264954,251.635239 
	C323.027771,252.019333 323.914734,252.449799 324.787170,252.907898 
	C330.316315,255.811035 330.497101,256.356842 327.332245,261.802979 
	C325.054138,265.723145 322.679688,269.587311 320.219086,273.691895 
	C322.957581,275.162140 325.394714,276.470581 328.060211,277.901611 
	C331.341705,272.823944 334.559021,267.845520 337.743073,262.918640 
	C342.594574,265.864594 347.206451,268.665039 351.636322,271.354980 
	C348.700562,276.501831 345.816284,281.558472 342.777557,286.885864 
	C346.226654,289.038605 349.363281,290.996307 352.411133,292.898590 
	C354.998047,288.618286 357.440460,284.577087 359.919891,280.474640 
	C358.294464,279.204437 356.642365,277.913361 355.129944,276.731445 
	C356.298126,274.369843 357.162079,272.240112 358.356903,270.315765 
	C359.549164,268.395477 361.072937,266.681030 362.451355,264.876312 
	C362.568848,265.302246 362.686371,265.728149 362.803864,266.154053 
	C364.859741,265.930878 366.915588,265.707733 369.271362,264.792694 
M282.070038,225.412201 
	C278.093811,218.454300 274.033081,211.543045 270.162628,204.526794 
	C265.263794,195.646347 260.611237,186.629364 255.661942,177.777817 
	C253.800262,174.448273 251.025192,172.822189 246.962021,174.612488 
	C243.278671,176.235443 240.834717,178.246521 242.382355,182.521118 
	C243.147308,181.296417 243.912903,180.070679 244.678482,178.844940 
	C246.092560,179.814713 248.095474,180.461670 248.831055,181.803406 
	C257.658752,197.905502 266.297455,214.111191 274.988037,230.288483 
	C280.412079,240.385193 285.840363,250.479645 291.293579,260.625031 
	C295.494720,255.314301 297.046356,250.405258 293.007538,244.427200 
	C289.064148,238.590317 285.998352,232.160522 282.070038,225.412201 
M329.966370,311.321686 
	C323.290283,299.226410 316.614197,287.131165 309.989960,275.129822 
	C304.051147,280.281647 302.954437,285.607544 308.185547,291.823029 
	C310.024780,294.008362 310.799347,297.059174 312.261566,299.598755 
	C315.438965,305.117340 318.746155,310.561188 322.294617,316.530853 
	C324.968567,314.847900 327.267365,313.401031 329.966370,311.321686 
M264.861450,322.606842 
	C262.709442,321.422668 260.673096,319.759338 258.369476,319.203217 
	C256.465515,318.743591 254.245712,319.592346 252.165848,319.861359 
	C253.117828,321.853088 253.548584,324.628326 255.127029,325.678375 
	C258.751343,328.089478 262.924286,329.682373 266.894501,331.565338 
	C270.924927,333.476898 272.696289,331.087250 274.353302,327.925751 
	C271.163269,326.138275 268.339935,324.556274 264.861450,322.606842 
M336.038239,328.619537 
	C338.482147,327.282501 341.174347,326.244812 343.279053,324.498901 
	C344.591461,323.410278 345.016571,321.252014 345.839844,319.573761 
	C343.881470,319.053040 341.452789,317.528870 340.047180,318.187622 
	C334.367035,320.849640 329.002167,324.184357 323.581604,327.236542 
	C327.164032,334.656586 331.431030,330.028809 336.038239,328.619537 
M344.597107,326.911072 
	C340.219971,329.163147 335.798584,331.335327 331.494537,333.719391 
	C330.312897,334.373932 329.482361,335.662323 328.490692,336.659851 
	C330.310608,337.274994 332.365540,338.750000 333.902588,338.329987 
	C337.319427,337.396271 340.668579,335.818573 343.681732,333.924835 
	C346.259705,332.304626 348.331329,329.878754 350.626862,327.809174 
	C350.337769,327.279480 350.048676,326.749786 349.759583,326.220093 
	C348.250549,326.300232 346.741547,326.380341 344.597107,326.911072 
M255.951950,335.575165 
	C258.940826,336.850677 261.855469,338.394897 264.959778,339.252655 
	C266.015259,339.544312 267.548767,338.106171 268.863861,337.458435 
	C268.437012,336.611725 268.232666,335.358490 267.547577,334.983521 
	C262.667572,332.312042 257.739532,329.713440 252.708252,327.343170 
	C251.397141,326.725464 249.666916,326.997437 247.614868,326.815125 
	C248.623642,331.848877 251.665833,333.790314 255.951950,335.575165 
M262.465515,318.986145 
	C265.341980,320.529236 268.142242,322.249146 271.129242,323.535614 
	C272.481354,324.117981 274.204285,323.839355 275.759003,323.951355 
	C275.061035,322.407562 274.769135,320.327850 273.582642,319.428864 
	C270.914276,317.407135 267.905182,315.727936 264.818207,314.420654 
	C263.649384,313.925690 261.884583,314.838165 260.391418,315.109100 
	C260.875702,316.250671 261.359955,317.392212 262.465515,318.986145 
M324.121704,324.186920 
	C327.952087,322.117798 331.870636,320.188660 335.546692,317.874420 
	C336.394531,317.340668 336.411774,315.487488 336.811218,314.241486 
	C335.536469,314.048309 334.005066,313.306824 333.033569,313.761505 
	C329.689819,315.326569 326.327393,317.037384 323.451050,319.301239 
	C322.599121,319.971741 323.326660,322.649048 324.121704,324.186920 
M397.023285,227.463882 
	C399.630707,223.125305 402.238159,218.786713 404.857819,214.455475 
	C401.383820,212.269043 398.845825,215.225510 394.303345,226.813431 
	C395.015930,227.182770 395.740814,227.558456 397.023285,227.463882 
M200.544159,227.023392 
	C201.608871,226.560028 202.673599,226.096664 203.434021,225.765732 
	C201.777222,222.774139 200.629852,219.775452 198.673706,217.460098 
	C197.075119,215.567993 197.198761,210.365814 192.033829,212.870697 
	C194.822784,217.633698 197.419647,222.068604 200.544159,227.023392 
M236.080078,291.278198 
	C237.780594,292.659698 238.559570,297.029694 241.939407,293.134918 
	C235.509995,281.629150 235.509995,281.629150 231.878098,282.815674 
	C233.241623,285.406067 234.594742,287.976685 236.080078,291.278198 
M361.559204,283.904083 
	C359.438080,287.153137 357.316956,290.402191 355.165009,293.698425 
	C357.453369,295.503754 358.967560,296.514740 360.359833,293.290802 
	C361.965576,289.572693 364.034302,286.054504 366.507538,281.280579 
	C364.288391,282.252258 363.126465,282.760986 361.559204,283.904083 
M375.035248,259.417297 
	C369.405243,268.662537 369.405243,268.662537 372.359039,270.884094 
	C374.564117,267.364136 376.762848,263.854279 379.257385,259.872253 
	C377.747925,259.509644 376.710602,259.260498 375.035248,259.417297 
M261.718597,276.727417 
	C263.076843,278.289703 263.944916,281.410431 266.998352,278.513947 
	C264.196411,274.363647 261.558502,270.456329 258.428741,265.820496 
	C256.245209,270.799225 260.107513,273.093353 261.718597,276.727417 
M374.976166,200.440536 
	C373.689087,203.190063 372.401978,205.939590 370.944122,209.053955 
	C377.536926,209.210861 377.168671,203.386047 380.755371,199.424896 
	C378.172119,199.585129 376.742218,199.673828 374.976166,200.440536 
M332.998840,275.597443 
	C331.707581,277.439484 329.164062,279.362732 333.526184,281.101959 
	C335.236786,276.366821 340.479645,273.160889 338.381958,267.113434 
	C336.763641,269.765015 335.145325,272.416626 332.998840,275.597443 
M222.074524,258.569946 
	C220.801743,258.770081 219.528961,258.970184 218.197052,259.179626 
	C220.707642,263.198639 222.991882,266.855316 225.859268,271.445496 
	C227.998611,265.534973 223.689850,262.759979 222.074524,258.569946 
M217.945557,199.187973 
	C219.704361,203.116089 220.568283,207.842880 226.661438,209.131744 
	C225.159607,205.785126 224.292099,203.091858 222.782990,200.825851 
	C222.080963,199.771667 220.133560,199.546860 217.945557,199.187973 
M267.976959,359.135223 
	C268.468750,360.947815 268.960541,362.760406 269.490631,364.714233 
	C269.490631,357.645203 269.490631,350.824738 269.490631,344.004242 
	C268.983215,344.005341 268.475830,344.006439 267.968414,344.007538 
	C267.968414,348.759430 267.968414,353.511322 267.976959,359.135223 
M328.010040,355.357971 
	C328.010040,357.412018 328.010040,359.466095 328.010040,361.520142 
	C328.406616,361.530884 328.803192,361.541626 329.199768,361.552399 
	C329.511963,355.431030 329.824188,349.309692 330.136383,343.188324 
	C329.427582,343.158081 328.718811,343.127808 328.010010,343.097534 
	C328.010010,346.867218 328.010010,350.636871 328.010040,355.357971 
M383.026001,247.210373 
	C383.682373,247.819778 384.338745,248.429199 385.105286,249.140854 
	C386.807617,245.972549 388.316681,243.163956 390.144043,239.762985 
	C385.549713,240.314133 384.253113,243.387955 383.026001,247.210373 
M238.838730,274.692780 
	C237.518204,272.135284 236.197678,269.577789 234.678528,266.635620 
	C232.372742,271.807983 233.651047,274.450256 238.838730,274.692780 
M209.158417,239.017807 
	C208.866272,239.829498 208.092285,240.900055 208.365250,241.408173 
	C209.560211,243.632553 211.058548,245.693970 212.446823,247.814499 
	C212.878540,247.778290 213.310272,247.742065 213.741989,247.705856 
	C213.652588,246.415192 213.938995,244.926971 213.388016,243.878983 
	C212.503311,242.196213 211.064758,240.804626 209.158417,239.017807 
M360.971588,270.552155 
	C360.084930,272.279541 359.198303,274.006927 358.243866,275.866425 
	C361.958862,275.711761 364.808441,272.595978 363.896271,269.861359 
	C363.158447,267.649292 362.167633,267.955994 360.971588,270.552155 
z"/>
<path fill="#FCFCFC" opacity="1.000000" stroke="none" 
	d="
M213.498596,224.595490 
	C212.780319,223.252335 212.274292,222.216873 211.717545,221.077652 
	C209.727737,222.108749 207.887222,223.062500 205.714996,224.188126 
	C202.957138,219.783249 200.234116,215.434036 197.313019,210.768463 
	C201.075378,208.987030 204.259094,207.479584 207.713242,205.844101 
	C210.317123,210.001648 212.826004,214.007507 215.631287,218.486664 
	C220.642838,215.493332 225.620102,212.520493 230.501419,209.604950 
	C228.284882,205.675079 226.044571,201.703064 223.498825,197.189529 
	C226.184677,195.467697 228.708817,193.849533 231.181549,192.264343 
	C234.568298,198.025253 237.700577,203.353287 240.913437,208.818420 
	C243.911362,207.409744 246.531143,206.178772 249.671295,204.703262 
	C258.154327,220.017685 266.596283,235.257935 275.004547,250.437363 
	C274.679962,250.850906 274.529846,251.211182 274.262451,251.358398 
	C265.542877,256.159241 267.054657,255.222366 271.354340,263.486725 
	C273.000214,266.650208 275.186157,269.532684 277.359009,272.904907 
	C274.635559,274.428040 272.234680,275.770782 269.467499,277.318390 
	C266.230164,272.255524 263.084625,267.336212 259.688507,262.024994 
	C255.201065,264.855347 250.736115,267.671509 246.124039,270.580475 
	C248.827179,275.708557 251.562607,280.897858 254.388321,286.258484 
	C251.131973,288.340240 248.127899,290.260712 244.836914,292.364594 
	C242.375992,288.012939 240.075912,283.945709 237.665283,279.682983 
	C239.190826,278.515259 240.479080,277.529144 242.365173,276.085419 
	C240.128189,272.138550 237.836060,268.094391 235.414703,263.822235 
	C233.509064,264.986481 232.000092,265.908356 230.133591,267.048676 
	C228.179504,263.936523 226.192673,260.772186 223.769547,256.913025 
	C229.039276,254.090363 234.265350,251.291107 239.877808,248.284897 
	C241.552048,251.121445 243.024582,253.616226 244.541748,256.186676 
	C248.604538,253.886032 252.726715,251.551773 257.536285,248.828247 
	C256.079468,245.988647 254.636002,243.175034 253.146057,240.270844 
	C255.244400,238.804398 257.350464,237.332550 259.645477,235.728653 
	C257.444366,231.894714 255.367355,228.276962 253.155685,224.424667 
	C250.611588,225.677246 248.471481,226.730911 245.908478,227.992798 
	C244.358322,225.144516 242.805359,222.291122 240.982803,218.942352 
	C236.470551,221.509445 231.858719,224.133209 227.010468,226.891464 
	C228.740097,229.976151 230.473816,233.068161 232.681274,237.005051 
	C227.419968,239.592712 222.370972,242.075958 216.845856,244.793365 
	C215.364166,242.149658 214.121429,239.932297 212.770187,237.521332 
	C214.611618,236.373611 216.250259,235.352280 217.981781,234.273071 
	C216.556595,231.146393 215.133713,228.024780 213.498596,224.595490 
z"/>
<path fill="#FCFCFC" opacity="1.000000" stroke="none" 
	d="
M369.121399,265.138611 
	C366.915588,265.707733 364.859741,265.930878 362.803864,266.154053 
	C362.686371,265.728149 362.568848,265.302246 362.451355,264.876312 
	C361.072937,266.681030 359.549164,268.395477 358.356903,270.315765 
	C357.162079,272.240112 356.298126,274.369843 355.129944,276.731445 
	C356.642365,277.913361 358.294464,279.204437 359.919891,280.474640 
	C357.440460,284.577087 354.998047,288.618286 352.411133,292.898590 
	C349.363281,290.996307 346.226654,289.038605 342.777557,286.885864 
	C345.816284,281.558472 348.700562,276.501831 351.636322,271.354980 
	C347.206451,268.665039 342.594574,265.864594 337.743073,262.918640 
	C334.559021,267.845520 331.341705,272.823944 328.060211,277.901611 
	C325.394714,276.470581 322.957581,275.162140 320.219086,273.691895 
	C322.679688,269.587311 325.054138,265.723145 327.332245,261.802979 
	C330.497101,256.356842 330.316315,255.811035 324.787170,252.907898 
	C323.914734,252.449799 323.027771,252.019333 322.264954,251.635239 
	C330.596710,236.450562 338.929077,221.264786 347.564331,205.526978 
	C350.449768,206.752274 353.253754,207.942978 356.596161,209.362320 
	C359.687714,204.088318 362.790802,198.794586 366.163269,193.041367 
	C368.547607,194.516174 370.940674,195.996399 373.687866,197.695663 
	C371.451263,201.922180 369.328217,205.934128 366.998016,210.337463 
	C371.633514,213.159836 376.435486,216.083572 381.638885,219.251740 
	C384.309296,215.031052 386.898682,210.938416 389.625153,206.629074 
	C393.110596,208.239059 396.476501,209.793854 400.088043,211.462097 
	C397.177185,216.082962 394.382568,220.519348 391.613068,224.915833 
	C389.898499,223.996735 388.312134,223.146362 385.849670,221.826370 
	C383.674225,226.026825 381.492310,230.239807 379.207733,234.651062 
	C380.993835,235.884430 382.545013,236.955566 384.382355,238.224319 
	C383.117157,240.587585 381.978027,242.715393 380.592285,245.303818 
	C375.308167,242.866028 370.192474,240.505936 364.523529,237.890610 
	C366.534180,234.296555 368.320435,231.103607 370.283600,227.594406 
	C365.664398,224.901352 361.170105,222.281128 356.424042,219.514145 
	C354.898865,222.309814 353.318604,225.206421 351.534363,228.476913 
	C349.087952,227.330994 346.901703,226.306931 344.323792,225.099411 
	C342.256531,228.545853 340.109222,232.125778 337.617798,236.279404 
	C339.711456,237.762619 341.754211,239.209778 344.234283,240.966721 
	C342.874725,243.633286 341.417633,246.491119 339.873993,249.518707 
	C344.205994,251.989990 348.418427,254.393036 352.796631,256.890656 
	C354.243195,254.370026 355.706665,251.819977 357.412354,248.847809 
	C362.736938,251.743820 367.951416,254.579941 373.289642,257.483368 
	C371.784576,260.221130 370.527985,262.506927 369.121399,265.138611 
z"/>
<path fill="#FAFAFA" opacity="1.000000" stroke="none" 
	d="
M381.492218,381.086151 
	C380.996796,385.500214 380.501373,389.914307 380.012115,394.273102 
	C389.729370,398.599213 391.270325,403.575134 384.058075,408.787079 
	C384.173309,407.476288 384.962524,406.461731 385.414093,405.881226 
	C382.570038,405.738007 378.951813,406.615387 377.311859,405.200256 
	C375.341003,403.499634 375.054230,399.847351 373.878540,396.598663 
	C369.948975,400.625580 370.250793,404.281830 372.620453,407.968781 
	C375.079559,411.795013 378.170898,411.388733 381.555603,409.146423 
	C382.167358,408.741180 383.225525,409.009857 384.077606,408.967407 
	C381.608917,410.269348 379.194641,412.497894 376.658203,412.646851 
	C373.223663,412.848480 370.003693,410.970642 369.035919,407.049988 
	C368.530853,405.003876 368.633514,402.769287 367.904694,400.829102 
	C367.331635,399.303497 365.904724,398.098633 365.342285,396.280884 
	C367.488617,395.701294 369.149750,395.592102 371.805756,395.417450 
	C370.188690,393.924072 369.578827,392.902435 368.741730,392.657562 
	C358.696014,389.719147 348.676300,386.645721 338.504120,384.217896 
	C335.949219,383.608093 332.876953,385.166046 330.042450,385.727753 
	C330.120941,386.479523 330.199432,387.231323 330.277893,387.983093 
	C334.983459,387.983093 339.715546,387.665405 344.388611,388.055084 
	C352.036316,388.692841 359.522491,390.107758 365.184845,396.062988 
	C362.166199,395.249939 358.875000,394.952271 356.180115,393.527039 
	C348.148987,389.279541 339.518829,389.950409 330.974823,389.854553 
	C329.927979,389.842804 328.588501,390.865814 327.859375,391.785614 
	C324.115479,396.508789 320.565796,397.488312 315.746887,394.883911 
	C311.560944,392.621613 309.067932,386.522949 310.535370,382.135010 
	C312.470062,376.349976 317.638947,374.516357 324.597595,377.160797 
	C325.192108,377.386749 325.751740,377.704468 326.489685,378.056976 
	C333.169617,366.317291 330.928375,352.836029 334.641144,340.797760 
	C341.901337,333.761200 350.024384,338.350952 358.042328,339.406158 
	C363.769989,340.159943 369.546936,340.609619 375.316559,340.930328 
	C376.997833,341.023804 378.729706,340.207031 380.438385,339.807495 
	C380.432129,339.324554 380.425842,338.841644 380.419586,338.358704 
	C375.045105,338.358704 369.670654,338.358704 364.296173,338.358704 
	C364.299774,337.923767 364.303406,337.488831 364.307037,337.053894 
	C370.319550,337.053894 376.332062,337.053894 382.255951,337.053894 
	C383.931519,329.257507 389.383575,325.416748 395.846710,327.169525 
	C401.772064,328.776459 406.026367,336.423126 403.811005,342.693420 
	C403.062439,344.812195 400.422913,347.386871 398.345490,347.691223 
	C393.110382,348.458252 390.691132,351.707062 388.308899,355.544861 
	C387.852478,354.191559 387.772552,353.141205 387.675140,351.860748 
	C380.997437,356.735016 375.054657,378.536530 379.194427,386.358337 
	C379.526093,384.579926 379.857758,382.801544 380.514282,381.055878 
	C381.056824,381.087769 381.274506,381.086975 381.492218,381.086151 
M378.009216,350.491425 
	C377.911621,349.070740 377.814056,347.650085 377.693848,345.899933 
	C370.285187,346.912323 361.977600,342.592804 357.314667,352.391754 
	C356.557343,343.233154 354.328918,341.752960 339.933411,340.427307 
	C338.367767,347.984497 337.355103,355.318970 344.501221,361.217529 
	C337.593292,363.566956 333.406891,369.964966 334.137054,376.603607 
	C334.230591,377.454285 335.254852,378.694122 336.062805,378.896667 
	C342.254578,380.448761 348.450531,381.465424 353.680664,376.164093 
	C353.710907,383.737946 359.132477,387.141052 372.894196,386.606537 
	C372.864197,379.028168 374.982635,370.977234 367.069244,365.447998 
	C376.233948,362.421539 377.796936,360.384918 378.009216,350.491425 
M395.986694,334.413300 
	C396.629059,336.046143 398.266205,338.565918 397.739594,339.156555 
	C395.594269,341.562866 392.786316,343.378418 390.609924,345.104492 
	C395.005829,347.203217 398.147217,346.383148 400.458984,341.694366 
	C402.813538,336.918854 401.354218,331.542694 396.928558,329.685944 
	C395.920593,329.263031 394.400757,330.060181 393.116516,330.295807 
	C393.823212,331.547119 394.529907,332.798431 395.986694,334.413300 
M321.102386,391.008118 
	C319.808838,390.532715 317.362396,389.919067 317.400238,389.603302 
	C317.776062,386.469269 318.562653,383.384460 319.278931,380.073883 
	C315.522980,379.704224 313.445526,382.290527 313.232147,386.031860 
	C313.002289,390.063080 315.771210,392.287201 319.579712,392.922485 
	C322.897766,393.475922 325.809235,391.349304 326.380646,387.918610 
	C324.734589,389.016907 323.310120,389.967377 321.102386,391.008118 
z"/>
<path fill="#F9F9F9" opacity="1.000000" stroke="none" 
	d="
M212.261230,408.900055 
	C211.184631,406.348694 208.626862,403.178711 209.374268,401.389160 
	C210.531265,398.618988 213.944794,396.791260 217.170105,393.867065 
	C217.079376,392.235535 216.905579,389.109772 216.975189,385.539246 
	C217.404953,385.071136 217.591339,385.047760 217.884277,385.423218 
	C219.861221,387.906738 221.205795,387.627686 220.936920,384.759827 
	C220.526169,380.378326 220.038422,375.933594 218.876007,371.710419 
	C217.332932,366.104248 215.221451,360.641144 213.084305,355.223022 
	C212.650879,354.124176 211.016785,353.498932 209.936218,352.655334 
	C209.659149,352.919159 209.382080,353.182953 209.105026,353.446777 
	C209.608658,354.759216 210.112289,356.071625 210.448502,357.551453 
	C210.281082,357.718842 209.945923,358.053314 209.945923,358.053314 
	C207.281357,353.354950 204.299545,349.523438 198.467545,347.834656 
	C192.986084,346.247375 191.763062,340.906982 194.437195,335.738495 
	C195.044220,334.565216 195.580093,333.355194 196.686249,332.194061 
	C197.387665,332.386871 197.551575,332.547729 197.531128,333.040955 
	C194.719513,337.642853 195.761810,341.668060 198.926697,344.890045 
	C201.572205,347.583252 204.957504,347.669342 208.314087,344.980621 
	C208.643387,344.706665 208.702332,344.491425 208.761261,344.276184 
	C208.359604,344.268250 207.957962,344.260284 207.198654,344.298584 
	C205.424835,344.210419 203.497803,344.602509 202.701141,343.829529 
	C201.144730,342.319427 199.895493,340.265930 199.213058,338.207336 
	C198.980347,337.505371 200.828400,336.111786 201.728561,335.036591 
	C202.769028,333.793793 203.812668,332.553619 204.854919,331.312317 
	C203.142349,331.106842 201.429764,330.901367 199.477264,330.459473 
	C199.079010,330.063782 198.920685,329.904541 198.762344,329.745270 
	C204.956589,325.722290 212.692093,327.992981 214.556763,334.381592 
	C216.195892,339.997528 219.545166,342.706635 225.310150,341.981659 
	C233.462845,340.956421 241.650665,339.793732 249.616776,337.844940 
	C255.114624,336.499939 259.482849,338.948486 263.160614,341.474854 
	C265.088531,342.799133 264.414917,347.843781 265.007446,351.192169 
	C266.433197,359.248688 267.859436,367.305878 269.401947,375.340454 
	C269.885742,377.860321 271.093384,378.594452 273.951172,377.578247 
	C280.257538,375.335815 285.299164,377.297546 286.784576,381.923309 
	C288.762634,388.083405 285.790192,393.869843 279.663818,396.216431 
	C275.320496,397.880005 272.201904,397.208405 269.784760,392.842804 
	C269.006714,391.437592 266.628113,390.283691 264.892303,390.146484 
	C253.406494,389.238586 242.982162,393.422455 232.222321,396.862610 
	C242.292023,388.394226 254.699448,387.993469 267.016418,387.172180 
	C252.459045,383.702911 239.636932,388.641083 227.032806,394.658203 
	C226.974091,395.132172 226.915375,395.606140 226.856659,396.080078 
	C228.535843,396.367523 230.215012,396.654938 231.894196,396.942383 
	C231.260559,398.869293 230.444626,400.758057 230.031326,402.731110 
	C229.176727,406.810974 228.523468,411.341553 223.940735,412.598328 
	C219.915649,413.702148 215.330429,414.235962 212.737274,408.675781 
	C213.632614,408.481689 214.457108,409.001434 215.293793,409.500793 
	C218.565399,411.453278 221.763321,412.738617 224.663101,408.846680 
	C228.010757,404.353668 227.818390,401.595978 223.518860,397.834656 
	C220.622559,401.181335 223.620956,413.105499 213.112900,405.248688 
	C212.771652,406.711700 212.516449,407.805878 212.261230,408.900055 
M239.499176,351.915863 
	C235.659210,345.573730 231.779358,344.739014 219.721115,347.682343 
	C220.036148,355.644989 219.270416,364.177948 230.832260,366.091949 
	C222.861588,372.401245 223.334869,379.852631 225.425156,387.736389 
	C232.801941,386.110870 242.468094,389.051300 244.178543,377.013916 
	C249.601990,382.233307 255.654617,381.016663 261.591034,379.513947 
	C262.572845,379.265442 263.970032,377.010956 263.711304,376.098663 
	C261.988708,370.024475 261.449310,362.900085 252.700989,361.904480 
	C258.561218,357.185638 259.261688,353.969940 257.568726,341.312744 
	C245.329346,342.234802 241.614548,342.479462 239.662201,352.573334 
	C239.662201,352.573334 239.629349,352.636566 239.499176,351.915863 
M277.127350,381.362488 
	C277.235931,381.821228 277.205444,382.565094 277.473907,382.695984 
	C281.555847,384.686340 281.262207,388.558868 279.336731,390.921692 
	C276.860260,393.960724 274.460114,390.788940 272.424011,388.935822 
	C272.098022,388.639130 271.649933,388.476593 270.997711,388.102631 
	C270.859192,392.809235 273.927032,393.933716 277.309845,393.921082 
	C281.258759,393.906311 283.730652,391.547882 283.981171,387.499512 
	C284.243378,383.262390 282.741302,380.379181 277.127350,381.362488 
z"/>
<path fill="#FCFCFC" opacity="1.000000" stroke="none" 
	d="
M353.782684,179.192230 
	C351.701385,180.788696 348.843475,181.950760 347.667206,184.053497 
	C340.990326,195.989532 334.780914,208.185745 328.288818,220.226791 
	C317.909271,239.478149 307.419128,258.669861 297.002106,277.901062 
	C289.917816,290.979614 282.878601,304.082550 275.556244,317.662323 
	C272.547882,315.724518 269.990967,314.077515 267.142029,312.242401 
	C275.704071,297.029358 284.037933,282.296967 292.297546,267.523041 
	C299.245209,255.095810 306.082153,242.606735 313.011810,230.169388 
	C322.496704,213.145935 331.910980,196.081482 341.592346,179.170151 
	C344.951843,173.301834 348.756226,173.144882 354.234467,178.360825 
	C354.065918,178.954056 353.924316,179.073135 353.782684,179.192230 
z"/>
<path fill="#FCFCFC" opacity="1.000000" stroke="none" 
	d="
M282.308655,225.701599 
	C285.998352,232.160522 289.064148,238.590317 293.007538,244.427200 
	C297.046356,250.405258 295.494720,255.314301 291.293579,260.625031 
	C285.840363,250.479645 280.412079,240.385193 274.988037,230.288483 
	C266.297455,214.111191 257.658752,197.905502 248.831055,181.803406 
	C248.095474,180.461670 246.092560,179.814713 244.678497,178.844940 
	C243.912903,180.070679 243.147308,181.296417 242.382355,182.521118 
	C240.834717,178.246521 243.278671,176.235443 246.962021,174.612488 
	C251.025192,172.822189 253.800262,174.448273 255.661942,177.777817 
	C260.611237,186.629364 265.263794,195.646347 270.162628,204.526794 
	C274.033081,211.543045 278.093811,218.454300 282.308655,225.701599 
z"/>
<path fill="#FCFCFC" opacity="1.000000" stroke="none" 
	d="
M329.766266,311.637939 
	C327.267365,313.401031 324.968567,314.847900 322.294617,316.530853 
	C318.746155,310.561188 315.438965,305.117340 312.261566,299.598755 
	C310.799347,297.059174 310.024780,294.008362 308.185547,291.823029 
	C302.954437,285.607544 304.051147,280.281647 309.989960,275.129822 
	C316.614197,287.131165 323.290283,299.226410 329.766266,311.637939 
z"/>
<path fill="#F7F7F7" opacity="1.000000" stroke="none" 
	d="
M265.189026,322.790558 
	C268.339935,324.556274 271.163269,326.138275 274.353302,327.925751 
	C272.696289,331.087250 270.924927,333.476898 266.894501,331.565338 
	C262.924286,329.682373 258.751343,328.089478 255.127029,325.678375 
	C253.548584,324.628326 253.117828,321.853088 252.165848,319.861359 
	C254.245712,319.592346 256.465515,318.743591 258.369476,319.203217 
	C260.673096,319.759338 262.709442,321.422668 265.189026,322.790558 
z"/>
<path fill="#FAFAFA" opacity="1.000000" stroke="none" 
	d="
M335.705505,328.803284 
	C331.431030,330.028809 327.164032,334.656586 323.581604,327.236542 
	C329.002167,324.184357 334.367035,320.849640 340.047180,318.187622 
	C341.452789,317.528870 343.881470,319.053040 345.839844,319.573761 
	C345.016571,321.252014 344.591461,323.410278 343.279053,324.498901 
	C341.174347,326.244812 338.482147,327.282501 335.705505,328.803284 
z"/>
<path fill="#F5F5F5" opacity="1.000000" stroke="none" 
	d="
M344.914795,326.685791 
	C346.741547,326.380341 348.250549,326.300232 349.759583,326.220093 
	C350.048676,326.749786 350.337769,327.279480 350.626862,327.809174 
	C348.331329,329.878754 346.259705,332.304626 343.681732,333.924835 
	C340.668579,335.818573 337.319427,337.396271 333.902588,338.329987 
	C332.365540,338.750000 330.310608,337.274994 328.490692,336.659851 
	C329.482361,335.662323 330.312897,334.373932 331.494537,333.719391 
	C335.798584,331.335327 340.219971,329.163147 344.914795,326.685791 
z"/>
<path fill="#FAFAFA" opacity="1.000000" stroke="none" 
	d="
M255.644608,335.353210 
	C251.665833,333.790314 248.623642,331.848877 247.614868,326.815125 
	C249.666916,326.997437 251.397141,326.725464 252.708252,327.343170 
	C257.739532,329.713440 262.667572,332.312042 267.547577,334.983521 
	C268.232666,335.358490 268.437012,336.611725 268.863861,337.458435 
	C267.548767,338.106171 266.015259,339.544312 264.959778,339.252655 
	C261.855469,338.394897 258.940826,336.850677 255.644608,335.353210 
z"/>
<path fill="#0F0F0F" opacity="1.000000" stroke="none" 
	d="
M380.189423,381.023163 
	C379.857758,382.801544 379.526093,384.579926 379.194427,386.358337 
	C375.054657,378.536530 380.997437,356.735016 387.675140,351.860748 
	C387.772552,353.141205 387.852478,354.191559 387.961426,355.637360 
	C387.839630,356.575836 387.688751,357.118866 386.896301,357.916626 
	C386.169281,359.138184 386.083801,360.105042 385.998352,361.071869 
	C385.998352,361.071869 385.991608,360.998077 385.703613,360.713959 
	C380.784241,366.561005 381.305450,373.999847 380.189423,381.023163 
z"/>
<path fill="#0F0F0F" opacity="1.000000" stroke="none" 
	d="
M212.271698,408.853760 
	C212.516449,407.805878 212.771652,406.711700 213.112900,405.248688 
	C223.620956,413.105499 220.622559,401.181335 223.518860,397.834656 
	C227.818390,401.595978 228.010757,404.353668 224.663101,408.846680 
	C221.763321,412.738617 218.565399,411.453278 215.293793,409.500793 
	C214.457108,409.001434 213.632614,408.481689 212.461517,408.362915 
	C212.120529,408.754547 212.282150,408.807465 212.271698,408.853760 
z"/>
<path fill="#F6F6F6" opacity="1.000000" stroke="none" 
	d="
M262.154877,318.759949 
	C261.359955,317.392212 260.875702,316.250671 260.391418,315.109100 
	C261.884583,314.838165 263.649384,313.925690 264.818207,314.420654 
	C267.905182,315.727936 270.914276,317.407135 273.582642,319.428864 
	C274.769135,320.327850 275.061035,322.407562 275.759003,323.951355 
	C274.204285,323.839355 272.481354,324.117981 271.129242,323.535614 
	C268.142242,322.249146 265.341980,320.529236 262.154877,318.759949 
z"/>
<path fill="#FBFBFB" opacity="1.000000" stroke="none" 
	d="
M323.726074,324.296814 
	C323.326660,322.649048 322.599121,319.971741 323.451050,319.301239 
	C326.327393,317.037384 329.689819,315.326569 333.033569,313.761505 
	C334.005066,313.306824 335.536469,314.048309 336.811218,314.241486 
	C336.411774,315.487488 336.394531,317.340668 335.546692,317.874420 
	C331.870636,320.188660 327.952087,322.117798 323.726074,324.296814 
z"/>
<path fill="#F1F1F1" opacity="1.000000" stroke="none" 
	d="
M396.744476,227.699005 
	C395.740814,227.558456 395.015930,227.182770 394.303345,226.813431 
	C398.845825,215.225510 401.383820,212.269043 404.851685,214.451813 
	C402.238159,218.786713 399.630707,223.125305 396.744476,227.699005 
z"/>
<path fill="#F5F5F5" opacity="1.000000" stroke="none" 
	d="
M200.280334,226.763458 
	C197.419647,222.068604 194.822784,217.633698 192.033829,212.870697 
	C197.198761,210.365814 197.075119,215.567993 198.673706,217.460098 
	C200.629852,219.775452 201.777222,222.774139 203.434021,225.765732 
	C202.673599,226.096664 201.608871,226.560028 200.280334,226.763458 
z"/>
<path fill="#F5F5F5" opacity="1.000000" stroke="none" 
	d="
M236.013977,290.912750 
	C234.594742,287.976685 233.241623,285.406067 231.878098,282.815674 
	C235.509995,281.629150 235.509995,281.629150 241.939407,293.134918 
	C238.559570,297.029694 237.780594,292.659698 236.013977,290.912750 
z"/>
<path fill="#FAFAFA" opacity="1.000000" stroke="none" 
	d="
M361.761902,283.586914 
	C363.126465,282.760986 364.288391,282.252258 366.507538,281.280579 
	C364.034302,286.054504 361.965576,289.572693 360.359833,293.290802 
	C358.967560,296.514740 357.453369,295.503754 355.165009,293.698425 
	C357.316956,290.402191 359.438080,287.153137 361.761902,283.586914 
z"/>
<path fill="#F6F6F6" opacity="1.000000" stroke="none" 
	d="
M375.354279,259.214294 
	C376.710602,259.260498 377.747925,259.509644 379.257385,259.872253 
	C376.762848,263.854279 374.564117,267.364136 372.359039,270.884094 
	C369.405243,268.662537 369.405243,268.662537 375.354279,259.214294 
z"/>
<path fill="#F3F3F3" opacity="1.000000" stroke="none" 
	d="
M261.502899,276.435089 
	C260.107513,273.093353 256.245209,270.799225 258.428741,265.820496 
	C261.558502,270.456329 264.196411,274.363647 266.998352,278.513947 
	C263.944916,281.410431 263.076843,278.289703 261.502899,276.435089 
z"/>
<path fill="#EEEEEE" opacity="1.000000" stroke="none" 
	d="
M375.144226,200.101532 
	C376.742218,199.673828 378.172119,199.585129 380.755371,199.424896 
	C377.168671,203.386047 377.536926,209.210861 370.944122,209.053955 
	C372.401978,205.939590 373.689087,203.190063 375.144226,200.101532 
z"/>
<path fill="#F5F5F5" opacity="1.000000" stroke="none" 
	d="
M333.262909,275.332825 
	C335.145325,272.416626 336.763641,269.765015 338.381958,267.113434 
	C340.479645,273.160889 335.236786,276.366821 333.526184,281.101959 
	C329.164062,279.362732 331.707581,277.439484 333.262909,275.332825 
z"/>
<path fill="#EFEFEF" opacity="1.000000" stroke="none" 
	d="
M222.341888,258.815552 
	C223.689850,262.759979 227.998611,265.534973 225.859268,271.445496 
	C222.991882,266.855316 220.707642,263.198639 218.197052,259.179626 
	C219.528961,258.970184 220.801743,258.770081 222.341888,258.815552 
z"/>
<path fill="#F2F2F2" opacity="1.000000" stroke="none" 
	d="
M218.348114,199.067047 
	C220.133560,199.546860 222.080963,199.771667 222.782990,200.825851 
	C224.292099,203.091858 225.159607,205.785126 226.661438,209.131744 
	C220.568283,207.842880 219.704361,203.116089 218.348114,199.067047 
z"/>
<path fill="#EBEBEB" opacity="1.000000" stroke="none" 
	d="
M331.828033,221.840439 
	C335.178223,215.412048 338.528442,208.983673 342.354462,202.625702 
	C342.970154,202.878326 343.110046,203.060577 343.249939,203.242828 
	C339.875427,209.645096 336.500885,216.047363 332.668945,222.397873 
	C332.083679,222.177551 331.955872,222.009003 331.828033,221.840439 
z"/>
<path fill="#E8E8E8" opacity="1.000000" stroke="none" 
	d="
M267.972687,358.699219 
	C267.968414,353.511322 267.968414,348.759430 267.968414,344.007538 
	C268.475830,344.006439 268.983215,344.005341 269.490631,344.004242 
	C269.490631,350.824738 269.490631,357.645203 269.490631,364.714233 
	C268.960541,362.760406 268.468750,360.947815 267.972687,358.699219 
z"/>
<path fill="#E1E1E1" opacity="1.000000" stroke="none" 
	d="
M217.777740,385.024384 
	C217.591339,385.047760 217.404953,385.071136 216.937103,385.080811 
	C215.311371,378.084930 213.967117,371.102753 212.682983,363.641541 
	C212.899124,363.044800 213.055191,362.927063 213.528107,363.016968 
	C215.155899,370.491180 216.466827,377.757782 217.777740,385.024384 
z"/>
<path fill="#E3E3E3" opacity="1.000000" stroke="none" 
	d="
M380.514282,381.055878 
	C381.305450,373.999847 380.784241,366.561005 385.740417,360.709412 
	C384.677917,367.464111 383.290680,373.939240 381.697815,380.750244 
	C381.274506,381.086975 381.056824,381.087769 380.514282,381.055878 
z"/>
<path fill="#F1F1F1" opacity="1.000000" stroke="none" 
	d="
M252.600067,197.368134 
	C255.704391,202.983673 258.808716,208.599228 261.887177,214.781769 
	C261.710968,215.625412 261.495300,215.834732 261.214233,215.976730 
	C258.096008,210.307663 254.977768,204.638596 252.014832,198.395538 
	C252.313431,197.670395 252.456741,197.519257 252.600067,197.368134 
z"/>
<path fill="#FCFCFC" opacity="1.000000" stroke="none" 
	d="
M328.010010,354.882263 
	C328.010010,350.636871 328.010010,346.867218 328.010010,343.097534 
	C328.718811,343.127808 329.427582,343.158081 330.136383,343.188324 
	C329.824188,349.309692 329.511963,355.431030 329.199768,361.552399 
	C328.803192,361.541626 328.406616,361.530884 328.010040,361.520142 
	C328.010040,359.466095 328.010040,357.412018 328.010010,354.882263 
z"/>
<path fill="#EEEEEE" opacity="1.000000" stroke="none" 
	d="
M261.264282,216.314728 
	C261.495300,215.834732 261.710968,215.625412 261.946686,215.137009 
	C265.178162,220.585617 268.324249,226.245972 271.412537,232.337387 
	C271.187927,232.891663 271.021118,233.014893 270.854309,233.138107 
	C267.674316,227.642990 264.494324,222.147858 261.264282,216.314728 
z"/>
<path fill="#F1F1F1" opacity="1.000000" stroke="none" 
	d="
M382.985596,246.829956 
	C384.253113,243.387955 385.549713,240.314133 390.144043,239.762985 
	C388.316681,243.163956 386.807617,245.972549 385.105286,249.140854 
	C384.338745,248.429199 383.682373,247.819778 382.985596,246.829956 
z"/>
<path fill="#F1F1F1" opacity="1.000000" stroke="none" 
	d="
M238.487549,274.863617 
	C233.651047,274.450256 232.372742,271.807983 234.678528,266.635620 
	C236.197678,269.577789 237.518204,272.135284 238.487549,274.863617 
z"/>
<path fill="#FAFAFA" opacity="1.000000" stroke="none" 
	d="
M209.509323,239.153900 
	C211.064758,240.804626 212.503311,242.196213 213.388016,243.878983 
	C213.938995,244.926971 213.652588,246.415192 213.741989,247.705856 
	C213.310272,247.742065 212.878540,247.778290 212.446823,247.814499 
	C211.058548,245.693970 209.560211,243.632553 208.365250,241.408173 
	C208.092285,240.900055 208.866272,239.829498 209.509323,239.153900 
z"/>
<path fill="#EBEBEB" opacity="1.000000" stroke="none" 
	d="
M323.854095,235.947006 
	C326.308380,231.355530 328.762634,226.764053 331.522461,222.006500 
	C331.955872,222.009003 332.083679,222.177551 332.375488,222.617828 
	C330.318298,227.175690 328.097168,231.461853 325.229004,235.886169 
	C324.339325,235.998566 324.096710,235.972778 323.854095,235.947006 
z"/>
<path fill="#F5F5F5" opacity="1.000000" stroke="none" 
	d="
M361.158447,270.227417 
	C362.167633,267.955994 363.158447,267.649292 363.896271,269.861359 
	C364.808441,272.595978 361.958862,275.711761 358.243866,275.866425 
	C359.198303,274.006927 360.084930,272.279541 361.158447,270.227417 
z"/>
<path fill="#EBEBEB" opacity="1.000000" stroke="none" 
	d="
M347.132507,196.120728 
	C346.029846,198.370895 344.927155,200.621048 343.537231,203.057022 
	C343.110046,203.060577 342.970154,202.878326 342.646454,202.404617 
	C343.649353,200.028503 344.836060,197.943878 346.382660,195.782898 
	C346.872498,195.844604 347.002502,195.982666 347.132507,196.120728 
z"/>
<path fill="#EFEFEF" opacity="1.000000" stroke="none" 
	d="
M314.800049,252.806976 
	C315.939026,250.596741 317.078003,248.386505 318.754517,246.172165 
	C319.455627,246.260086 319.619202,246.352127 319.782776,246.444168 
	C318.573181,248.695053 317.363617,250.945953 315.676025,253.200623 
	C315.065338,253.071945 314.932709,252.939468 314.800049,252.806976 
z"/>
<path fill="#F2F2F2" opacity="1.000000" stroke="none" 
	d="
M282.616943,251.390121 
	C283.528320,253.235611 284.439697,255.081116 285.312805,257.369812 
	C285.132874,257.921844 284.991211,258.030670 284.849518,258.139496 
	C283.867493,256.380859 282.885498,254.622238 282.065674,252.323181 
	C282.357574,251.651886 282.487274,251.520996 282.616943,251.390121 
z"/>
<path fill="#F2F2F2" opacity="1.000000" stroke="none" 
	d="
M285.499756,257.667755 
	C286.516388,259.071228 287.307800,260.619965 287.936066,262.683441 
	C287.645844,263.317413 287.518768,263.436676 287.391693,263.555908 
	C286.567200,261.979004 285.742676,260.402100 284.883850,258.482361 
	C284.991211,258.030670 285.132874,257.921844 285.499756,257.667755 
z"/>
<path fill="#EFEFEF" opacity="1.000000" stroke="none" 
	d="
M319.062500,246.005066 
	C319.571106,244.200317 320.309265,242.558563 321.428101,240.854370 
	C321.950043,240.935242 322.091339,241.078537 322.232635,241.221817 
	C321.496643,242.762131 320.760651,244.302444 319.903717,246.143463 
	C319.619202,246.352127 319.455627,246.260086 319.062500,246.005066 
z"/>
<path fill="#EEEEEE" opacity="1.000000" stroke="none" 
	d="
M311.604218,304.408569 
	C312.172943,305.583832 312.741669,306.759064 313.245270,308.393066 
	C313.033173,308.976837 312.886169,309.101837 312.739136,309.226837 
	C312.127075,308.091858 311.515015,306.956909 311.065613,305.303009 
	C311.353577,304.658905 311.478882,304.533722 311.604218,304.408569 
z"/>
<path fill="#FCFCFC" opacity="1.000000" stroke="none" 
	d="
M354.113342,184.101837 
	C353.561493,185.493469 353.009644,186.885101 352.457825,188.276733 
	C352.076996,188.109604 351.696167,187.942474 351.315369,187.775345 
	C351.893463,186.515671 352.471588,185.255981 353.395233,183.875458 
	C353.864960,183.870346 353.989166,183.986099 354.113342,184.101837 
z"/>
<path fill="#EFEFEF" opacity="1.000000" stroke="none" 
	d="
M323.566528,236.070038 
	C324.096710,235.972778 324.339325,235.998566 324.945007,236.069809 
	C324.888000,237.112427 324.467896,238.109589 323.508179,239.039062 
	C322.808167,238.830032 322.647766,238.688675 322.487366,238.547318 
	C322.751221,237.762558 323.015076,236.977814 323.566528,236.070038 
z"/>
<path fill="#F2F2F2" opacity="1.000000" stroke="none" 
	d="
M282.028778,251.974472 
	C280.920502,251.338379 280.011353,250.510574 279.102173,249.682770 
	C279.303192,249.410416 279.504181,249.138046 279.705200,248.865692 
	C280.552979,249.518539 281.400787,250.171387 282.432739,251.107178 
	C282.487274,251.520996 282.357574,251.651886 282.028778,251.974472 
z"/>
<path fill="#FCFCFC" opacity="1.000000" stroke="none" 
	d="
M353.563171,183.572113 
	C353.550201,182.232300 353.714783,181.074936 353.831024,179.554901 
	C353.924316,179.073135 354.065918,178.954056 354.433838,178.673691 
	C354.705414,180.254684 354.750702,181.996933 354.454651,183.920517 
	C353.989166,183.986099 353.864960,183.870346 353.563171,183.572113 
z"/>
<path fill="#F9F9F9" opacity="1.000000" stroke="none" 
	d="
M211.674438,361.374512 
	C211.107498,360.489502 210.540558,359.604492 209.959778,358.386414 
	C209.945923,358.053314 210.281082,357.718842 210.712006,357.761780 
	C211.497116,358.827667 211.851273,359.850555 212.037308,360.961243 
	C211.869186,361.049011 211.674423,361.374512 211.674438,361.374512 
z"/>
<path fill="#EBEBEB" opacity="1.000000" stroke="none" 
	d="
M346.559875,195.488510 
	C346.971710,194.197205 347.566193,193.123947 348.160675,192.050690 
	C348.412750,192.146988 348.664825,192.243301 348.916901,192.339600 
	C348.531464,193.499405 348.146027,194.659195 347.446533,195.969864 
	C347.002502,195.982666 346.872498,195.844604 346.559875,195.488510 
z"/>
<path fill="#EEEEEE" opacity="1.000000" stroke="none" 
	d="
M314.865387,313.128876 
	C314.191132,312.048309 313.516907,310.967773 312.790894,309.557007 
	C312.886169,309.101837 313.033173,308.976837 313.413086,308.679016 
	C314.282166,309.655029 314.918304,310.803864 315.465729,312.356812 
	C315.206451,312.883606 315.035919,313.006256 314.865387,313.128876 
z"/>
<path fill="#F2F2F2" opacity="1.000000" stroke="none" 
	d="
M287.965851,263.021851 
	C288.639191,263.531952 289.168304,264.193848 289.541748,264.934265 
	C289.591400,265.032684 288.850952,265.529694 288.476410,265.842102 
	C288.209991,265.270905 287.943542,264.699677 287.534393,263.842194 
	C287.518768,263.436676 287.645844,263.317413 287.965851,263.021851 
z"/>
<path fill="#EEEEEE" opacity="1.000000" stroke="none" 
	d="
M272.380035,235.718796 
	C271.901398,235.068893 271.422760,234.418991 270.899231,233.453598 
	C271.021118,233.014893 271.187927,232.891663 271.633728,232.630814 
	C272.322388,233.076218 272.732086,233.659241 272.961670,234.746872 
	C272.647705,235.407257 272.513855,235.563019 272.380035,235.718796 
z"/>
<path fill="#EEEEEE" opacity="1.000000" stroke="none" 
	d="
M316.373169,315.655151 
	C315.902710,315.018768 315.432251,314.382355 314.913574,313.437439 
	C315.035919,313.006256 315.206451,312.883606 315.662598,312.627686 
	C316.366455,313.057343 316.784729,313.620270 317.012085,314.684875 
	C316.671783,315.342773 316.522461,315.498962 316.373169,315.655151 
z"/>
<path fill="#F9F9F9" opacity="1.000000" stroke="none" 
	d="
M196.976639,331.986053 
	C197.209900,331.131287 197.690292,330.516479 198.466522,329.823486 
	C198.920685,329.904541 199.079010,330.063782 199.285461,330.669373 
	C198.794205,331.646698 198.254837,332.177673 197.715485,332.708618 
	C197.551575,332.547729 197.387665,332.386871 196.976639,331.986053 
z"/>
<path fill="#EFEFEF" opacity="1.000000" stroke="none" 
	d="
M315.392090,253.407898 
	C314.892151,254.036499 314.198090,254.461624 313.504028,254.886749 
	C313.744446,254.289062 313.984863,253.691376 314.512665,252.950348 
	C314.932709,252.939468 315.065338,253.071945 315.392090,253.407898 
z"/>
<path fill="#EEEEEE" opacity="1.000000" stroke="none" 
	d="
M317.050598,314.957642 
	C317.691040,315.628479 318.101990,316.528259 318.512970,317.428040 
	C318.318207,317.570465 318.123444,317.712891 317.928650,317.855316 
	C317.524872,317.336578 317.121063,316.817871 316.545227,315.977173 
	C316.522461,315.498962 316.671783,315.342773 317.050598,314.957642 
z"/>
<path fill="#EEEEEE" opacity="1.000000" stroke="none" 
	d="
M272.992859,235.027374 
	C273.546936,235.690231 273.889648,236.577209 274.232391,237.464188 
	C274.001923,237.571075 273.771484,237.677963 273.541046,237.784851 
	C273.284515,237.280640 273.028015,236.776413 272.575745,235.995483 
	C272.513855,235.563019 272.647705,235.407257 272.992859,235.027374 
z"/>
<path fill="#F1F1F1" opacity="1.000000" stroke="none" 
	d="
M251.950073,198.043350 
	C251.292206,197.555893 250.854355,196.846649 250.416519,196.137390 
	C251.022812,196.365753 251.629105,196.594116 252.417725,197.095306 
	C252.456741,197.519257 252.313431,197.670395 251.950073,198.043350 
z"/>
<path fill="#E3E3E3" opacity="1.000000" stroke="none" 
	d="
M386.357483,360.979004 
	C386.083801,360.105042 386.169281,359.138184 386.655914,358.076355 
	C386.943604,358.949646 386.830109,359.917877 386.357483,360.979004 
z"/>
<path fill="#EEEEEE" opacity="1.000000" stroke="none" 
	d="
M311.035522,304.966919 
	C310.528961,304.586914 310.215118,304.024078 309.901276,303.461243 
	C310.349243,303.590454 310.797241,303.719666 311.424713,304.128723 
	C311.478882,304.533722 311.353577,304.658905 311.035522,304.966919 
z"/>
<path fill="#EFEFEF" opacity="1.000000" stroke="none" 
	d="
M321.614624,240.560730 
	C321.657288,239.864517 321.894073,239.399490 322.309082,238.740875 
	C322.647766,238.688675 322.808167,238.830032 323.206207,239.187103 
	C323.212799,239.926163 322.981750,240.449478 322.491669,241.097305 
	C322.091339,241.078537 321.950043,240.935242 321.614624,240.560730 
z"/>
<path fill="#E1E1E1" opacity="1.000000" stroke="none" 
	d="
M212.482697,363.297302 
	C212.056671,362.924469 211.891022,362.416901 211.699905,361.641907 
	C211.674423,361.374512 211.869186,361.049011 212.321152,361.062012 
	C212.919159,361.653137 213.065201,362.231232 213.211243,362.809357 
	C213.055191,362.927063 212.899124,363.044800 212.482697,363.297302 
z"/>
<path fill="#0D0908" opacity="1.000000" stroke="none" 
	d="
M378.008728,350.950012 
	C377.796936,360.384918 376.233948,362.421539 367.069244,365.447998 
	C374.982635,370.977234 372.864197,379.028168 372.894196,386.606537 
	C359.132477,387.141052 353.710907,383.737946 353.680664,376.164093 
	C348.450531,381.465424 342.254578,380.448761 336.062805,378.896667 
	C335.254852,378.694122 334.230591,377.454285 334.137054,376.603607 
	C333.406891,369.964966 337.593292,363.566956 344.501221,361.217529 
	C337.355103,355.318970 338.367767,347.984497 339.933411,340.427307 
	C354.328918,341.752960 356.557343,343.233154 357.314667,352.391754 
	C361.977600,342.592804 370.285187,346.912323 377.693848,345.899933 
	C377.814056,347.650085 377.911621,349.070740 378.008728,350.950012 
M368.973145,348.493347 
	C362.609253,348.606354 359.163269,353.365692 355.161743,357.823853 
	C354.506958,345.210175 351.989899,342.715576 341.622742,344.769409 
	C341.622742,347.978394 340.616608,351.821991 341.899445,354.613800 
	C343.241730,357.535034 346.783783,359.445496 349.332642,361.768890 
	C346.922760,362.943207 343.828308,363.633087 342.020660,365.541687 
	C339.822906,367.862244 338.709534,371.209808 337.127014,374.113068 
	C339.794739,375.074097 342.766571,377.278442 345.061859,376.716949 
	C348.908936,375.775848 352.324799,373.071991 355.740631,371.208923 
	C356.624847,381.368805 359.777344,384.071136 369.629639,382.698029 
	C372.173187,374.676971 368.048981,368.905579 362.531311,363.771210 
	C365.799255,362.458069 369.298981,362.114258 370.777222,360.205170 
	C372.916351,357.442566 373.592194,353.546875 374.892273,350.134583 
	C373.179382,349.510590 371.466492,348.886597 368.973145,348.493347 
z"/>
<path fill="#101010" opacity="1.000000" stroke="none" 
	d="
M365.160583,396.024597 
	C359.522491,390.107758 352.036316,388.692841 344.388611,388.055084 
	C339.715546,387.665405 334.983459,387.983093 330.277893,387.983093 
	C330.199432,387.231323 330.120941,386.479523 330.042450,385.727753 
	C332.876953,385.166046 335.949219,383.608093 338.504120,384.217896 
	C348.676300,386.645721 358.696014,389.719147 368.741730,392.657562 
	C369.578827,392.902435 370.188690,393.924072 371.805756,395.417450 
	C369.149750,395.592102 367.488617,395.701294 365.441925,395.876831 
	C365.056366,395.943176 365.136322,395.986206 365.160583,396.024597 
z"/>
<path fill="#0D0D0D" opacity="1.000000" stroke="none" 
	d="
M395.611633,334.231506 
	C394.529907,332.798431 393.823212,331.547119 393.116516,330.295807 
	C394.400757,330.060181 395.920593,329.263031 396.928558,329.685944 
	C401.354218,331.542694 402.813538,336.918854 400.458984,341.694366 
	C398.147217,346.383148 395.005829,347.203217 390.609924,345.104492 
	C392.786316,343.378418 395.594269,341.562866 397.739594,339.156555 
	C398.266205,338.565918 396.629059,336.046143 395.611633,334.231506 
z"/>
<path fill="#0A0A0A" opacity="1.000000" stroke="none" 
	d="
M384.042145,408.976318 
	C383.225525,409.009857 382.167358,408.741180 381.555603,409.146423 
	C378.170898,411.388733 375.079559,411.795013 372.620453,407.968781 
	C370.250793,404.281830 369.948975,400.625580 373.878540,396.598663 
	C375.054230,399.847351 375.341003,403.499634 377.311859,405.200256 
	C378.951813,406.615387 382.570038,405.738007 385.414093,405.881226 
	C384.962524,406.461731 384.173309,407.476288 383.685242,408.773254 
	C383.986420,409.055603 384.006683,408.985291 384.042145,408.976318 
z"/>
<path fill="#0F0F0F" opacity="1.000000" stroke="none" 
	d="
M321.494019,390.962982 
	C323.310120,389.967377 324.734589,389.016907 326.380646,387.918610 
	C325.809235,391.349304 322.897766,393.475922 319.579712,392.922485 
	C315.771210,392.287201 313.002289,390.063080 313.232147,386.031860 
	C313.445526,382.290527 315.522980,379.704224 319.278931,380.073883 
	C318.562653,383.384460 317.776062,386.469269 317.400238,389.603302 
	C317.362396,389.919067 319.808838,390.532715 321.494019,390.962982 
z"/>
<path fill="#0F0A0A" opacity="1.000000" stroke="none" 
	d="
M239.620758,352.637512 
	C241.614548,342.479462 245.329346,342.234802 257.568726,341.312744 
	C259.261688,353.969940 258.561218,357.185638 252.700989,361.904480 
	C261.449310,362.900085 261.988708,370.024475 263.711304,376.098663 
	C263.970032,377.010956 262.572845,379.265442 261.591034,379.513947 
	C255.654617,381.016663 249.601990,382.233307 244.178543,377.013916 
	C242.468094,389.051300 232.801941,386.110870 225.425156,387.736389 
	C223.334869,379.852631 222.861588,372.401245 230.832260,366.091949 
	C219.270416,364.177948 220.036148,355.644989 219.721115,347.682343 
	C231.779358,344.739014 235.659210,345.573730 239.787781,352.140106 
	C240.207413,352.394775 240.338440,352.425201 240.469452,352.455627 
	C240.471664,352.370361 240.473877,352.285065 240.476074,352.199799 
	C240.190964,352.345703 239.905869,352.491608 239.620758,352.637512 
M223.867691,349.214935 
	C223.909958,352.055542 222.829941,355.814117 224.238968,357.536835 
	C226.805405,360.674622 230.848633,362.604492 234.376846,365.110199 
	C229.871017,370.181061 224.546799,375.489105 228.095123,384.835419 
	C231.783936,383.651459 236.158310,383.315247 238.921539,381.030518 
	C241.227722,379.123657 241.646271,374.933807 242.820801,371.957764 
	C244.618454,373.400360 246.693359,376.314148 249.224945,376.788025 
	C252.555939,377.411499 257.594940,377.360748 259.455322,375.344543 
	C262.035187,372.548645 259.017761,368.767212 256.185577,366.599274 
	C253.901978,364.851196 251.078400,363.808441 247.742981,362.058533 
	C255.560196,358.622253 257.683716,352.898956 254.965836,343.980927 
	C251.479843,345.179108 246.741409,345.394897 244.870209,347.821594 
	C242.709198,350.624146 243.075546,355.375488 242.353317,359.233429 
	C237.162994,351.188599 233.356766,348.984650 223.867691,349.214935 
z"/>
<path fill="#0F0F0F" opacity="1.000000" stroke="none" 
	d="
M231.853714,396.969116 
	C230.215012,396.654938 228.535843,396.367523 226.856659,396.080078 
	C226.915375,395.606140 226.974091,395.132172 227.032806,394.658203 
	C239.636932,388.641083 252.459045,383.702911 267.016418,387.172180 
	C254.699448,387.993469 242.292023,388.394226 231.829987,396.706238 
	C231.753662,397.072357 231.813232,396.995819 231.853714,396.969116 
z"/>
<path fill="#0B0B0B" opacity="1.000000" stroke="none" 
	d="
M213.528122,363.016968 
	C213.065201,362.231232 212.919159,361.653137 212.489273,360.974243 
	C211.851273,359.850555 211.497116,358.827667 210.879425,357.594421 
	C210.112289,356.071625 209.608658,354.759216 209.105026,353.446777 
	C209.382080,353.182953 209.659149,352.919159 209.936218,352.655334 
	C211.016785,353.498932 212.650879,354.124176 213.084305,355.223022 
	C215.221451,360.641144 217.332932,366.104248 218.876007,371.710419 
	C220.038422,375.933594 220.526169,380.378326 220.936920,384.759827 
	C221.205795,387.627686 219.861221,387.906738 217.884277,385.423218 
	C216.466827,377.757782 215.155899,370.491180 213.528122,363.016968 
z"/>
<path fill="#090909" opacity="1.000000" stroke="none" 
	d="
M197.531143,333.040955 
	C198.254837,332.177673 198.794205,331.646698 199.525391,330.905823 
	C201.429764,330.901367 203.142349,331.106842 204.854919,331.312317 
	C203.812668,332.553619 202.769028,333.793793 201.728561,335.036591 
	C200.828400,336.111786 198.980347,337.505371 199.213058,338.207336 
	C199.895493,340.265930 201.144730,342.319427 202.701141,343.829529 
	C203.497803,344.602509 205.424835,344.210419 207.300537,344.507721 
	C207.760071,344.670563 208.043716,345.039337 208.043716,345.039337 
	C204.957504,347.669342 201.572205,347.583252 198.926697,344.890045 
	C195.761810,341.668060 194.719513,337.642853 197.531143,333.040955 
z"/>
<path fill="#101010" opacity="1.000000" stroke="none" 
	d="
M277.460999,381.104614 
	C282.741302,380.379181 284.243378,383.262390 283.981171,387.499512 
	C283.730652,391.547882 281.258759,393.906311 277.309845,393.921082 
	C273.927032,393.933716 270.859192,392.809235 270.997711,388.102631 
	C271.649933,388.476593 272.098022,388.639130 272.424011,388.935822 
	C274.460114,390.788940 276.860260,393.960724 279.336731,390.921692 
	C281.262207,388.558868 281.555847,384.686340 277.473907,382.695984 
	C277.205444,382.565094 277.235931,381.821228 277.460999,381.104614 
z"/>
<path fill="#090909" opacity="1.000000" stroke="none" 
	d="
M207.658188,344.461426 
	C207.957962,344.260284 208.359604,344.268250 208.761261,344.276184 
	C208.702332,344.491425 208.643387,344.706665 208.314087,344.980621 
	C208.043716,345.039337 207.760071,344.670563 207.658188,344.461426 
z"/>
<path fill="#E14133" opacity="1.000000" stroke="none" 
	d="
M369.363373,348.377960 
	C371.466492,348.886597 373.179382,349.510590 374.892273,350.134583 
	C373.592194,353.546875 372.916351,357.442566 370.777222,360.205170 
	C369.298981,362.114258 365.799255,362.458069 362.531311,363.771210 
	C368.048981,368.905579 372.173187,374.676971 369.629639,382.698029 
	C359.777344,384.071136 356.624847,381.368805 355.740631,371.208923 
	C352.324799,373.071991 348.908936,375.775848 345.061859,376.716949 
	C342.766571,377.278442 339.794739,375.074097 337.127014,374.113068 
	C338.709534,371.209808 339.822906,367.862244 342.020660,365.541687 
	C343.828308,363.633087 346.922760,362.943207 349.332642,361.768890 
	C346.783783,359.445496 343.241730,357.535034 341.899445,354.613800 
	C340.616608,351.821991 341.622742,347.978394 341.622742,344.769409 
	C351.989899,342.715576 354.506958,345.210175 355.161743,357.823853 
	C359.163269,353.365692 362.609253,348.606354 369.363373,348.377960 
z"/>
<path fill="#E14133" opacity="1.000000" stroke="none" 
	d="
M224.296417,349.138763 
	C233.356766,348.984650 237.162994,351.188599 242.353317,359.233429 
	C243.075546,355.375488 242.709198,350.624146 244.870209,347.821594 
	C246.741409,345.394897 251.479843,345.179108 254.965836,343.980927 
	C257.683716,352.898956 255.560196,358.622253 247.742981,362.058533 
	C251.078400,363.808441 253.901978,364.851196 256.185577,366.599274 
	C259.017761,368.767212 262.035187,372.548645 259.455322,375.344543 
	C257.594940,377.360748 252.555939,377.411499 249.224945,376.788025 
	C246.693359,376.314148 244.618454,373.400360 242.820801,371.957764 
	C241.646271,374.933807 241.227722,379.123657 238.921539,381.030518 
	C236.158310,383.315247 231.783936,383.651459 228.095123,384.835419 
	C224.546799,375.489105 229.871017,370.181061 234.376846,365.110199 
	C230.848633,362.604492 226.805405,360.674622 224.238968,357.536835 
	C222.829941,355.814117 223.909958,352.055542 224.296417,349.138763 
z"/>
<path fill="#F9F9F9" opacity="1.000000" stroke="none" 
	d="
M239.641479,352.605408 
	C239.905869,352.491608 240.190964,352.345703 240.476074,352.199799 
	C240.473877,352.285065 240.471664,352.370361 240.469452,352.455627 
	C240.338440,352.425201 240.207413,352.394775 239.852875,352.500458 
	C239.629349,352.636566 239.662201,352.573334 239.641479,352.605408 
z"/>
</svg>